<svg width="50" height="50" viewBox="0 0 50 50" fill="none" xmlns="http://www.w3.org/2000/svg">
<path d="M13.2681 27.7848H12.6287L12.4135 28.0288L12.7651 28.4251C12.9191 28.5974 12.9191 28.858 12.7651 29.0303L12.4135 29.4275L12.7651 29.8237C12.9191 29.996 12.9191 30.2558 12.7651 30.4281L12.4135 30.8261L12.7651 31.2223C12.9191 31.3955 12.9191 31.6544 12.7651 31.8276L12.4135 32.2238L12.7651 32.6218C12.9191 32.7933 12.9191 33.0539 12.7651 33.2263L12.4135 33.6225L12.7651 34.0205C12.9191 34.1928 12.9191 34.4526 12.7651 34.6258L12.4135 35.022L12.7301 35.3806H13.2681V27.7848Z" fill="white"/>
<path d="M23.223 15.2278C24.0968 15.3878 25.4176 15.6301 26.0631 15.0904C26.3097 14.8831 26.4584 14.5507 26.5127 14.1046C25.3432 13.9848 24.1003 13.9166 22.7742 13.9166C22.3692 13.9166 21.9573 13.9218 21.5392 13.9341C20.9934 13.9489 20.5656 14.3872 20.5656 14.933V15.6152C21.031 15.3607 21.6573 15.0992 22.2827 15.0992C22.5267 15.0992 22.8495 15.1587 23.223 15.2278Z" fill="white"/>
<path d="M18.6422 12.6018C18.9649 12.6018 19.2282 12.3394 19.2282 12.0175C19.2282 11.6956 18.9649 11.4332 18.6422 11.4332C18.3194 11.4332 18.0587 11.6956 18.0587 12.0175C18.0587 12.3394 18.3194 12.6018 18.6422 12.6018Z" fill="white"/>
<path d="M30.9622 36.2913H25.3878V35.3807H26.6412V33.892H17.6153V35.3807H23.8877V36.2913H17.1596H13.7246H12.3225H7.91232V36.9517H13.7246H30.9622V36.2913Z" fill="white"/>
<path d="M12.7651 38.8226L12.4135 39.2188L12.7651 39.6159C12.919 39.7882 12.919 40.048 12.7651 40.2212L12.4117 40.6174L12.7651 41.0154C12.919 41.1886 12.919 41.4484 12.7651 41.6216L12.4117 42.0178L12.7651 42.4149C12.919 42.5881 12.919 42.8479 12.7651 43.0202L12.4117 43.4173L12.7651 43.8153C12.919 43.9876 12.919 44.2474 12.7651 44.4197L12.2586 44.9909L12.2604 45.6924L13.268 45.018V37.863H12.4511L12.7651 38.2173C12.919 38.3896 12.919 38.6494 12.7651 38.8226Z" fill="white"/>
<path d="M20.9041 29.9225L20.6793 27.7847H20.2971L20.0714 29.9225C20.0618 30.0117 20.0259 30.0957 19.9699 30.1648C19.8702 30.2855 19.8177 30.4316 19.8177 30.5899C19.8177 30.959 20.1187 31.259 20.4878 31.259C20.8569 31.259 21.1587 30.959 21.1587 30.5899C21.1587 30.4316 21.1044 30.2855 21.0056 30.1648C20.9487 30.0957 20.9138 30.0117 20.9041 29.9225Z" fill="white"/>
<path d="M12.6917 13.5195C12.1555 15.7788 11.7864 18.7842 11.6245 22.2113C11.6114 22.4544 11.4094 22.6451 11.168 22.6451C11.161 22.6451 11.1531 22.6451 11.1461 22.6451C10.8959 22.632 10.7 22.4186 10.7131 22.1675C10.8811 18.6364 11.2484 15.6554 11.8056 13.3086C12.2998 11.2251 13.9145 9.62619 16.019 9.13461C16.263 9.07688 16.5097 9.22997 16.5665 9.47488C16.6225 9.7198 16.4712 9.96471 16.2254 10.0224C14.4612 10.4344 13.1063 11.7744 12.6917 13.5195ZM11.5353 25.2841C11.5318 25.5342 11.3289 25.7354 11.0796 25.7354C11.077 25.7354 11.0761 25.7354 11.0744 25.7354C10.8233 25.7336 10.6204 25.5272 10.623 25.2753C10.6256 24.9727 10.6318 24.6394 10.6396 24.2817C10.644 24.0298 10.8574 23.8277 11.105 23.8356C11.356 23.8417 11.5554 24.0499 11.5519 24.3018C11.5432 24.6552 11.5379 24.9849 11.5353 25.2841ZM18.6422 10.521C19.4679 10.521 20.1379 11.1928 20.1379 12.0176C20.1379 12.8424 19.4679 13.5133 18.6422 13.5133C17.8182 13.5133 17.1465 12.8424 17.1465 12.0176C17.1465 11.1928 17.8182 10.521 18.6422 10.521ZM21.5138 13.0218C25.2111 12.922 30.3622 13.2212 33.9108 15.2137C34.5039 15.5461 34.8721 16.1811 34.8738 16.8704L34.8747 18.6285C34.8747 19.1393 34.6762 19.6195 34.314 19.9799C33.9554 20.3412 33.4743 20.5397 32.9644 20.5397H21.5628C20.5105 20.5397 19.6542 19.6825 19.6542 18.6294V14.9329C19.6542 13.8903 20.472 13.0515 21.5138 13.0218ZM35.6287 28.0122H40.2856C40.5383 28.0122 40.7421 28.216 40.7421 28.4671C40.7421 28.7198 40.5383 28.9236 40.2856 28.9236H35.6287C35.3768 28.9236 35.173 28.7198 35.173 28.4671C35.173 28.216 35.3768 28.0122 35.6287 28.0122ZM35.6287 25.9768H40.2856C40.5383 25.9768 40.7421 26.1806 40.7421 26.4325C40.7421 26.6844 40.5383 26.8882 40.2856 26.8882H35.6287C35.3768 26.8882 35.173 26.6844 35.173 26.4325C35.173 26.1806 35.3768 25.9768 35.6287 25.9768ZM35.6287 23.9414H40.2856C40.5383 23.9414 40.7421 24.1443 40.7421 24.3962C40.7421 24.6481 40.5383 24.852 40.2856 24.852H35.6287C35.3768 24.852 35.173 24.6481 35.173 24.3962C35.173 24.1443 35.3768 23.9414 35.6287 23.9414ZM35.6287 21.9051H40.2856C40.5383 21.9051 40.7421 22.1098 40.7421 22.3608C40.7421 22.6127 40.5383 22.8166 40.2856 22.8166H35.6287C35.3768 22.8166 35.173 22.6127 35.173 22.3608C35.173 22.1098 35.3768 21.9051 35.6287 21.9051ZM22.6483 30.5016C22.6483 29.7668 22.2774 29.1012 21.6931 28.7067L21.7972 29.7039C21.9739 29.9637 22.0692 30.2742 22.0692 30.5899C22.0692 31.462 21.359 32.1714 20.4878 32.1714C19.6157 32.1714 18.9072 31.462 18.9072 30.5899C18.9072 30.2742 19.0026 29.9637 19.1766 29.7039L19.2825 28.7076C18.6982 29.1012 18.3273 29.7668 18.3273 30.5016H17.4159C17.4159 29.2184 18.2171 28.0901 19.3953 27.6405L19.4329 27.281C19.4574 27.0492 19.6533 26.8734 19.8869 26.8734H21.0896C21.3222 26.8734 21.5182 27.0492 21.5427 27.281L21.5803 27.6405C22.7585 28.0901 23.5606 29.2184 23.5606 30.5016H22.6483ZM16.6059 28.0402V32.879C16.6059 32.935 16.6514 32.9805 16.7074 32.9805H17.1596H27.0961H27.5492C27.6034 32.9805 27.6489 32.935 27.6489 32.879V31.2232C27.6489 30.708 28.0679 30.289 28.5839 30.289H41.2512C41.5416 30.289 41.7778 30.052 41.7778 29.7616V21.0672C41.7778 20.7768 41.5416 20.5397 41.2512 20.5397H40.2663C39.4441 20.5397 38.7758 19.8706 38.7758 19.0484V16.0657C38.7758 14.6286 38.0805 13.292 36.9136 12.4899C31.2421 8.59406 23.2168 7.91092 18.2958 7.91092C17.9031 7.91092 17.5305 7.91531 17.1806 7.9223C14.1095 7.98791 11.4741 10.1012 10.77 13.0637C9.78331 17.2247 9.5865 22.4947 9.55938 25.2639V25.2648C9.55501 25.6925 9.71945 26.0975 10.0203 26.4019C10.3221 26.7063 10.7227 26.8734 11.1522 26.8734H13.7247H15.4382C16.0828 26.8734 16.6059 27.3973 16.6059 28.0402Z" fill="#4ED06B"/>
<path d="M14.1795 27.3292V27.7849H15.4382C15.5799 27.7849 15.6944 27.8995 15.6944 28.0403V32.8791C15.6944 33.4371 16.1475 33.8894 16.7038 33.8911V33.4354C16.7038 33.1844 16.9085 32.9806 17.1596 32.9806H16.7073C16.6513 32.9806 16.6059 32.9351 16.6059 32.8791V28.0403C16.6059 27.3974 16.0828 26.8735 15.4382 26.8735H13.7246C13.9766 26.8735 14.1795 27.0773 14.1795 27.3292Z" fill="black"/>
<path d="M12.0837 27.0265C12.2499 26.8376 12.5385 26.821 12.7275 26.9881C12.9155 27.1551 12.9322 27.4438 12.7651 27.6318L12.6286 27.7849H13.268V27.3292C13.268 27.0773 13.4736 26.8735 13.7246 26.8735H11.1522C10.7227 26.8735 10.3221 26.7064 10.0203 26.402C9.71941 26.0976 9.55497 25.6926 9.55934 25.2649V25.264C9.58646 22.4948 9.78327 17.2247 10.7699 13.0638C11.4741 10.1013 14.1095 7.988 17.1805 7.9224C17.5304 7.9154 17.903 7.91102 18.2958 7.91102C23.2168 7.91102 31.2421 8.59416 36.9136 12.49C38.0804 13.2921 38.7758 14.6286 38.7758 16.0658V19.0485C38.7758 19.8707 39.4441 20.5398 40.2663 20.5398H41.2512C41.5416 20.5398 41.7777 20.7769 41.7777 21.0673V29.7617C41.7777 30.0521 41.5416 30.2891 41.2512 30.2891H28.5839C28.0678 30.2891 27.6488 30.7081 27.6488 31.2233V32.8791C27.6488 32.9351 27.6034 32.9806 27.5491 32.9806H27.096C27.3479 32.9806 27.5526 33.1844 27.5526 33.4354V33.8911C28.1081 33.8894 28.5611 33.4371 28.5611 32.8791V31.2233C28.5611 31.2111 28.5716 31.2006 28.5839 31.2006H41.2512C42.0437 31.2006 42.6892 30.555 42.6892 29.7617V21.0673C42.6892 20.2739 42.0437 19.6284 41.2512 19.6284H40.2663C39.947 19.6284 39.6881 19.3686 39.6881 19.0485V16.0658C39.6881 14.3278 38.8432 12.7105 37.4297 11.7395C31.0934 7.3862 22.0106 6.90949 17.1604 7.01183C13.6748 7.08531 10.6816 9.48809 9.88387 12.853C8.87535 17.1005 8.67679 22.4466 8.64792 25.2553C8.64092 25.9288 8.89808 26.5647 9.37217 27.0423C9.84625 27.5216 10.4787 27.7849 11.1522 27.7849H11.4408C11.4522 27.7665 11.4478 27.7429 11.4635 27.7263L12.0837 27.0265Z" fill="black"/>
<path d="M16.5665 9.4748C16.5096 9.22989 16.263 9.0768 16.0189 9.13453C13.9144 9.62611 12.2998 11.225 11.8056 13.3086C11.2484 15.6554 10.881 18.6363 10.7131 22.1674C10.7 22.4185 10.8959 22.6319 11.146 22.645C11.153 22.645 11.1609 22.645 11.1679 22.645C11.4093 22.645 11.6114 22.4543 11.6245 22.2112C11.7863 18.7841 12.1554 15.7787 12.6916 13.5194C13.1062 11.7744 14.4611 10.4343 16.2254 10.0224C16.4712 9.96463 16.6225 9.71972 16.5665 9.4748Z" fill="black"/>
<path d="M11.1049 23.8358C10.8574 23.8279 10.644 24.03 10.6396 24.2819C10.6317 24.6396 10.6256 24.9729 10.623 25.2755C10.6204 25.5274 10.8233 25.7338 11.0743 25.7356C11.0761 25.7356 11.0769 25.7356 11.0796 25.7356C11.3289 25.7356 11.5318 25.5344 11.5353 25.2843C11.5379 24.9851 11.5431 24.6554 11.5519 24.302C11.5554 24.0501 11.356 23.8419 11.1049 23.8358Z" fill="black"/>
<path d="M20.5656 15.6153V14.933C20.5656 14.3872 20.9933 13.949 21.5392 13.9341C21.9573 13.9219 22.3692 13.9166 22.7742 13.9166C24.1002 13.9166 25.3432 13.9848 26.5126 14.1047C26.5284 13.977 26.538 13.8414 26.538 13.6936L27.4486 13.6901C27.4494 13.8738 27.4311 14.0391 27.4109 14.2053C29.8636 14.5324 31.9139 15.1368 33.4638 16.0071C33.7717 16.1795 33.9615 16.5101 33.9615 16.8713L33.9624 18.6295C33.9624 18.8954 33.8583 19.1473 33.6702 19.3353C33.4813 19.5243 33.2311 19.6284 32.9644 19.6284H21.5628C21.0134 19.6284 20.5656 19.1805 20.5656 18.6295V16.685C20.5053 16.727 20.4318 16.7751 20.3915 16.8057L19.8256 16.0911C19.8501 16.0719 20.1423 15.8462 20.5656 15.6153ZM19.6542 18.6295C19.6542 19.6826 20.5105 20.5398 21.5628 20.5398H32.9644C33.4743 20.5398 33.9554 20.3412 34.314 19.98C34.6761 19.6196 34.8747 19.1394 34.8747 18.6286L34.8738 16.8705C34.8721 16.1812 34.5038 15.5462 33.9108 15.2138C30.3622 13.2212 25.2111 12.9221 21.5138 13.0218C20.472 13.0516 19.6542 13.8904 19.6542 14.933V18.6295Z" fill="black"/>
<path d="M22.2827 16.0116C22.4454 16.0116 22.7427 16.0658 23.0594 16.1244C24.1003 16.3151 25.6738 16.6028 26.6482 15.7885C27.0786 15.4273 27.3296 14.8911 27.411 14.2053C27.1197 14.1651 26.8153 14.1353 26.5127 14.1047C26.4584 14.5508 26.3097 14.8832 26.0631 15.0905C25.4176 15.6302 24.0968 15.3879 23.223 15.2278C22.8495 15.1587 22.5267 15.0993 22.2827 15.0993C21.6573 15.0993 21.031 15.3608 20.5656 15.6153V16.6851C20.9391 16.4261 21.659 16.0116 22.2827 16.0116Z" fill="black"/>
<path d="M20.5656 16.685V15.6152C20.1422 15.8461 19.8501 16.0718 19.8256 16.091L20.3915 16.8057C20.4318 16.775 20.5052 16.727 20.5656 16.685Z" fill="black"/>
<path d="M27.4486 13.6901L26.538 13.6936C26.538 13.8415 26.5284 13.977 26.5126 14.1047C26.8153 14.1354 27.1197 14.1651 27.4109 14.2053C27.4311 14.0391 27.4494 13.8738 27.4486 13.6901Z" fill="black"/>
<path d="M18.6422 11.4334C18.9649 11.4334 19.2282 11.6958 19.2282 12.0177C19.2282 12.3396 18.9649 12.602 18.6422 12.602C18.3194 12.602 18.0588 12.3396 18.0588 12.0177C18.0588 11.6958 18.3194 11.4334 18.6422 11.4334ZM18.6422 13.5134C19.4679 13.5134 20.1379 12.8425 20.1379 12.0177C20.1379 11.1929 19.4679 10.5211 18.6422 10.5211C17.8182 10.5211 17.1464 11.1929 17.1464 12.0177C17.1464 12.8425 17.8182 13.5134 18.6422 13.5134Z" fill="black"/>
<path d="M17.6152 35.3806V33.8919H16.7073C16.7056 33.8919 16.7056 33.891 16.7038 33.891V35.3806H17.6152Z" fill="black"/>
<path d="M26.6412 33.8919V35.3806H27.5526V33.891C27.5509 33.891 27.55 33.8919 27.5491 33.8919H26.6412Z" fill="black"/>
<path d="M27.096 32.9804H17.1595C16.9085 32.9804 16.7038 33.1842 16.7038 33.4353V33.891C16.7056 33.891 16.7056 33.8918 16.7073 33.8918H17.6152H26.6412H27.5491C27.55 33.8918 27.5509 33.891 27.5526 33.891V33.4353C27.5526 33.1842 27.3479 32.9804 27.096 32.9804Z" fill="black"/>
<path d="M16.7038 35.8355V35.3807H14.1795V35.8355C14.1795 36.0875 13.9766 36.2913 13.7246 36.2913H17.1596C16.9085 36.2913 16.7038 36.0875 16.7038 35.8355Z" fill="black"/>
<path d="M13.2681 35.8355V35.3807H12.7301L12.7651 35.4201C12.9191 35.5924 12.9191 35.8513 12.7651 36.0245L12.6645 36.1382C12.5744 36.2397 12.4493 36.2913 12.3225 36.2913H13.7246C13.4736 36.2913 13.2681 36.0875 13.2681 35.8355Z" fill="black"/>
<path d="M27.096 36.2912H30.9622V36.9516H13.7246C13.9766 36.9516 14.1795 37.1563 14.1795 37.4073V37.863H31.4162C31.6689 37.863 31.8719 37.6592 31.8719 37.4073V35.8355C31.8719 35.5845 31.6689 35.3807 31.4162 35.3807H27.5527V35.8355C27.5527 36.0874 27.348 36.2912 27.096 36.2912Z" fill="black"/>
<path d="M7.45661 37.863H11.3647C11.3516 37.7397 11.3752 37.6164 11.4636 37.5166L11.8292 37.1055C11.9954 36.9166 12.284 36.9 12.473 37.0671C12.661 37.2341 12.6776 37.5228 12.5106 37.7108L12.4135 37.8202L12.4511 37.863H13.2681V37.4073C13.2681 37.1563 13.4736 36.9516 13.7246 36.9516H7.91232V36.2912H12.3225C12.2158 36.2912 12.1073 36.2536 12.0216 36.1766C11.9062 36.0743 11.8546 35.9265 11.872 35.7848L11.5125 35.3807H7.45661C7.2047 35.3807 7 35.5845 7 35.8355V37.4073C7 37.6592 7.2047 37.863 7.45661 37.863Z" fill="black"/>
<path d="M16.7038 35.8355C16.7038 36.0875 16.9085 36.2913 17.1595 36.2913H23.8877V35.3807H17.6152H16.7038V35.8355Z" fill="black"/>
<path d="M25.3878 35.3807V36.2913H27.096C27.348 36.2913 27.5526 36.0875 27.5526 35.8355V35.3807H26.6412H25.3878Z" fill="black"/>
<path d="M35.6287 22.8167H40.2855C40.5383 22.8167 40.7421 22.6128 40.7421 22.3609C40.7421 22.1099 40.5383 21.9052 40.2855 21.9052H35.6287C35.3767 21.9052 35.1729 22.1099 35.1729 22.3609C35.1729 22.6128 35.3767 22.8167 35.6287 22.8167Z" fill="black"/>
<path d="M35.6287 24.8518H40.2855C40.5383 24.8518 40.7421 24.648 40.7421 24.3961C40.7421 24.1442 40.5383 23.9412 40.2855 23.9412H35.6287C35.3767 23.9412 35.1729 24.1442 35.1729 24.3961C35.1729 24.648 35.3767 24.8518 35.6287 24.8518Z" fill="black"/>
<path d="M35.6287 26.8882H40.2855C40.5383 26.8882 40.7421 26.6844 40.7421 26.4325C40.7421 26.1806 40.5383 25.9768 40.2855 25.9768H35.6287C35.3767 25.9768 35.1729 26.1806 35.1729 26.4325C35.1729 26.6844 35.3767 26.8882 35.6287 26.8882Z" fill="black"/>
<path d="M35.6287 28.9236H40.2855C40.5383 28.9236 40.7421 28.7198 40.7421 28.467C40.7421 28.216 40.5383 28.0122 40.2855 28.0122H35.6287C35.3767 28.0122 35.1729 28.216 35.1729 28.467C35.1729 28.7198 35.3767 28.9236 35.6287 28.9236Z" fill="black"/>
<path d="M21.1587 30.5897C21.1587 30.9588 20.8569 31.2588 20.4878 31.2588C20.1187 31.2588 19.8177 30.9588 19.8177 30.5897C19.8177 30.4314 19.8702 30.2853 19.9699 30.1646C20.0259 30.0955 20.0618 30.0115 20.0714 29.9223L20.2971 27.7846H20.6793L20.9041 29.9223C20.9137 30.0115 20.9487 30.0955 21.0056 30.1646C21.1044 30.2853 21.1587 30.4314 21.1587 30.5897ZM21.2732 27.5309C21.3808 27.5589 21.4797 27.6017 21.5803 27.6402L21.5426 27.2807C21.5181 27.0489 21.3222 26.8731 21.0895 26.8731H19.8868C19.6533 26.8731 19.4574 27.0489 19.4329 27.2807L19.3953 27.6402C19.4967 27.6017 19.5965 27.5589 19.7023 27.5309L19.935 28.4126C19.697 28.4747 19.4784 28.5762 19.2824 28.7074L19.1766 29.7036C19.0025 29.9634 18.9072 30.2739 18.9072 30.5897C18.9072 31.4618 19.6157 32.1711 20.4878 32.1711C21.359 32.1711 22.0692 31.4618 22.0692 30.5897C22.0692 30.2739 21.9739 29.9634 21.7972 29.7036L21.6931 28.7065C21.498 28.5762 21.2785 28.4747 21.0414 28.4126L21.2732 27.5309Z" fill="black"/>
<path d="M21.5802 27.6406L21.6931 28.7068C22.2774 29.1013 22.6482 29.767 22.6482 30.5017H23.5605C23.5605 29.2185 22.7585 28.0902 21.5802 27.6406Z" fill="black"/>
<path d="M21.2732 27.5312L21.0414 28.4129C21.2785 28.475 21.498 28.5765 21.6931 28.7068L21.5802 27.6405C21.4796 27.6021 21.3808 27.5592 21.2732 27.5312Z" fill="black"/>
<path d="M17.4158 30.5017H18.3272C18.3272 29.767 18.6981 29.1013 19.2824 28.7077L19.3953 27.6406C18.217 28.0902 17.4158 29.2185 17.4158 30.5017Z" fill="black"/>
<path d="M19.7023 27.5313C19.5964 27.5593 19.4967 27.6022 19.3952 27.6406L19.2824 28.7078C19.4783 28.5766 19.697 28.4751 19.9349 28.413L19.7023 27.5313Z" fill="black"/>
<path d="M14.1795 35.3806V27.7848H13.2681V35.3806H14.1795Z" fill="black"/>
<path d="M14.1795 27.3292C14.1795 27.0773 13.9765 26.8735 13.7246 26.8735C13.4736 26.8735 13.2681 27.0773 13.2681 27.3292V27.7849H14.1795V27.3292Z" fill="black"/>
<path d="M14.1795 35.8355V35.3807H13.2681V35.8355C13.2681 36.0875 13.4736 36.2913 13.7246 36.2913C13.9765 36.2913 14.1795 36.0875 14.1795 35.8355Z" fill="black"/>
<path d="M13.2681 45.018L12.2604 45.6923L12.2587 44.9908L12.7651 44.4197C12.9191 44.2473 12.9191 43.9876 12.7651 43.8153L12.4117 43.4173L12.7651 43.0202C12.9191 42.8478 12.9191 42.5881 12.7651 42.4149L12.4117 42.0178L12.7651 41.6215C12.9191 41.4483 12.9191 41.1885 12.7651 41.0154L12.4117 40.6174L12.7651 40.2211C12.9191 40.048 12.9191 39.7882 12.7651 39.6158L12.4135 39.2188L12.7651 38.8225C12.9191 38.6493 12.9191 38.3895 12.7651 38.2172L12.4511 37.863H11.3647C11.3726 37.9557 11.3971 38.0484 11.4636 38.1228L11.8152 38.5199L11.4636 38.9161C11.3087 39.0893 11.3087 39.3491 11.4636 39.5205L11.8152 39.9185L11.4636 40.3156C11.3087 40.4888 11.3087 40.7486 11.4636 40.9209L11.8152 41.318L11.4636 41.716C11.3087 41.8883 11.3087 42.1481 11.4636 42.3204L11.8152 42.7175L11.4636 43.1146C11.3087 43.2869 11.3087 43.5476 11.4636 43.7199L11.8161 44.1179L11.4627 44.5176C11.3875 44.5998 11.3472 44.7083 11.3481 44.8194L11.3516 46.546C11.3516 46.714 11.4443 46.8679 11.5921 46.9475C11.6595 46.9834 11.733 47 11.8073 47C11.8957 47 11.984 46.9755 12.0601 46.9239L13.9783 45.6399C14.1051 45.555 14.1795 45.4124 14.1795 45.2602V37.863H13.2681V45.018Z" fill="black"/>
<path d="M12.4135 37.8202L12.5105 37.7108C12.6776 37.5228 12.661 37.2341 12.4729 37.0671C12.284 36.9 11.9954 36.9166 11.8292 37.1055L11.4635 37.5166C11.3752 37.6164 11.3516 37.7397 11.3647 37.863H12.4511L12.4135 37.8202Z" fill="black"/>
<path d="M13.7246 36.9516C13.4736 36.9516 13.2681 37.1563 13.2681 37.4073V37.863H14.1795V37.4073C14.1795 37.1563 13.9765 36.9516 13.7246 36.9516Z" fill="black"/>
<path d="M12.4135 35.022L12.7651 34.6258C12.9191 34.4526 12.9191 34.1928 12.7651 34.0205L12.4135 33.6225L12.7651 33.2263C12.9191 33.0539 12.9191 32.7933 12.7651 32.6218L12.4135 32.2238L12.7651 31.8276C12.9191 31.6544 12.9191 31.3955 12.7651 31.2223L12.4135 30.8261L12.7651 30.4281C12.9191 30.2558 12.9191 29.996 12.7651 29.8237L12.4135 29.4275L12.7651 29.0303C12.9191 28.858 12.9191 28.5974 12.7651 28.4251L12.4135 28.0288L12.6287 27.7848H11.4408C11.3289 27.9545 11.3245 28.1749 11.4636 28.3306L11.8152 28.7277L11.4636 29.1239C11.3087 29.2971 11.3087 29.5569 11.4636 29.7292L11.8152 30.1263L11.4636 30.5226C11.3087 30.6958 11.3087 30.9556 11.4636 31.1279L11.8152 31.525L11.4636 31.9212C11.3087 32.0944 11.3087 32.3542 11.4636 32.5265L11.8152 32.9236L11.4636 33.3207C11.3087 33.493 11.3087 33.7528 11.4636 33.926L11.8152 34.3222L11.4636 34.7202C11.3087 34.8925 11.3087 35.1532 11.4636 35.3255L11.5125 35.3806H12.7301L12.4135 35.022Z" fill="black"/>
<path d="M12.7651 27.6318C12.9322 27.4438 12.9156 27.1551 12.7275 26.9881C12.5386 26.821 12.2499 26.8376 12.0837 27.0266L11.4636 27.7263C11.4478 27.7429 11.4522 27.7665 11.4408 27.7849H12.6287L12.7651 27.6318Z" fill="black"/>
<path d="M12.0216 36.1767C12.1073 36.2537 12.2158 36.2913 12.3225 36.2913C12.4493 36.2913 12.5744 36.2397 12.6645 36.1382L12.7651 36.0245C12.9191 35.8513 12.9191 35.5924 12.7651 35.4201L12.7301 35.3807H11.5125L11.8721 35.7848C11.8546 35.9265 11.9062 36.0744 12.0216 36.1767Z" fill="black"/>
</svg>
