<svg width="50" height="50" viewBox="0 0 50 50" fill="none" xmlns="http://www.w3.org/2000/svg">
<path d="M30.1936 44.409C30.0895 44.533 29.9409 44.5959 29.7909 44.5959C29.6698 44.5959 29.5473 44.5534 29.4475 44.4691C29.3203 44.36 29.1999 44.2378 29.089 44.1045C28.9013 43.8806 28.932 43.5466 29.1561 43.3596C29.3806 43.1727 29.715 43.2032 29.9026 43.4263C29.9749 43.5142 30.053 43.5937 30.1346 43.6641C30.3577 43.8528 30.3837 44.1878 30.1936 44.409ZM28.7304 42.5879C28.4875 42.5879 28.2691 42.4194 28.2142 42.1724C27.7138 39.9144 28.2156 36.7469 28.8533 34.5343C28.9342 34.2521 29.2281 34.0892 29.5082 34.1707C29.7895 34.2521 29.9514 34.5445 29.8708 34.8249C29.2975 36.8182 28.7896 39.8784 29.2477 41.9438C29.3109 42.2297 29.1309 42.512 28.8457 42.5749C28.807 42.5851 28.7683 42.5879 28.7304 42.5879ZM28.1285 26.3688V27.6551H30.5413V28.7137H28.2677C28.5995 30.1712 28.5633 31.7582 28.1086 33.3684C28.1065 33.3776 28.1032 33.3859 28.0999 33.3961C28.0678 33.4914 24.8868 42.9774 29.2617 45.637C29.9286 46.0432 30.7582 46.0432 31.4259 45.637C35.8059 42.9747 32.6194 33.4914 32.5872 33.3961C32.5836 33.3859 32.5804 33.3776 32.579 33.3684C32.1242 31.7582 32.0877 30.1712 32.4192 28.7137H31.7464V27.6551H32.5584V26.3688H31.4299H29.2566H28.1285Z" fill="#302F2F"/>
<path d="M30.9111 8.84234L31.6988 4.86138L30.8732 3.92676V5.73678H29.8141V3.92676L28.9888 4.86138L29.7764 8.84234C29.783 8.87658 29.7866 8.90989 29.7866 8.94506V25.3103H30.9006V8.94506C30.9006 8.90989 30.9039 8.87658 30.9111 8.84234Z" fill="#E0E0E0"/>
<path d="M19.3045 44.409C19.1998 44.533 19.0511 44.5959 18.9004 44.5959C18.78 44.5959 18.6575 44.5534 18.5577 44.4691C18.4309 44.3609 18.3101 44.2387 18.1995 44.1045C18.0116 43.8806 18.0416 43.5466 18.2671 43.3596C18.4916 43.1727 18.8253 43.2032 19.0121 43.4263C19.0847 43.5142 19.1632 43.5937 19.2445 43.6641C19.4672 43.8528 19.4932 44.1869 19.3045 44.409ZM17.8402 42.5879C17.598 42.5879 17.379 42.4194 17.324 42.1724C16.8234 39.9144 17.3255 36.7469 17.9631 34.5343C18.0444 34.2521 18.3376 34.0892 18.6184 34.1707C18.8993 34.2521 19.0612 34.5445 18.9806 34.8249C18.407 36.8182 17.8995 39.8784 18.3575 41.9438C18.4208 42.2297 18.2403 42.512 17.9551 42.5749C17.9164 42.5851 17.8781 42.5879 17.8402 42.5879ZM17.2391 26.3688V27.6551H19.6519V28.7137H17.3779C17.7097 30.1712 17.6725 31.7582 17.2188 33.3684C17.2163 33.3776 17.2134 33.3859 17.2102 33.3961C17.1776 33.4914 13.9963 42.9774 18.3715 45.637C19.0388 46.0432 19.8684 46.0432 20.5353 45.637C24.9153 42.9747 21.7296 33.4914 21.6972 33.3961C21.6943 33.3859 21.6906 33.3776 21.6885 33.3684C21.2341 31.7582 21.1972 30.1712 21.5294 28.7137H20.8567V27.6551H21.6682V26.3688H20.5401H18.3665H17.2391Z" fill="#302F2F"/>
<path d="M20.0593 8.7239L21.066 6.54094L20.1341 3.05876H18.7732L17.8417 6.54094L18.8484 8.7239C18.8798 8.79237 18.8964 8.86826 18.8964 8.94506V25.3103H20.0101V8.94506C20.0101 8.86826 20.0271 8.79237 20.0593 8.7239Z" fill="#E0E0E0"/>
<path d="M18.8964 8.94506C18.8964 8.86825 18.8798 8.79237 18.8484 8.72389L17.8417 6.54094L18.7732 3.05875H20.1341L21.066 6.54094L20.0593 8.72389C20.0271 8.79237 20.0101 8.86825 20.0101 8.94506V25.3103H21.0699V9.06166L22.1074 6.81021C22.1595 6.69824 22.1696 6.57147 22.1381 6.45117L21.0512 2.39248C20.9897 2.16113 20.7794 2.00012 20.5401 2.00012H18.3665C18.1279 2.00012 17.9172 2.16113 17.8554 2.39248L16.7692 6.45117C16.737 6.57147 16.7478 6.69824 16.7995 6.81021L17.8373 9.06166V25.3103H18.8964V8.94506Z" fill="black"/>
<path d="M17.821 46.5419C18.3245 46.8482 18.8892 47 19.4539 47C20.0181 47 20.582 46.8482 21.0855 46.5419C26.1371 43.4697 22.9049 33.6607 22.7035 33.0685C22.2379 31.4084 22.2372 29.776 22.7013 28.3472C22.7187 28.2945 22.7274 28.2408 22.7274 28.1834V25.8404C22.7274 25.547 22.4898 25.3101 22.1981 25.3101H21.0699V25.8404C21.0699 26.1319 20.8328 26.3688 20.5401 26.3688H21.6682V27.655H22.1981V28.7137H21.5294C21.1972 30.1711 21.2341 31.7582 21.6884 33.3683C21.6906 33.3776 21.6943 33.3859 21.6971 33.3961C21.7296 33.4914 24.9153 42.9746 20.5353 45.6369C19.8684 46.0432 19.0388 46.0432 18.3715 45.6369C13.9963 42.9774 17.1776 33.4914 17.2102 33.3961C17.2134 33.3859 17.2163 33.3776 17.2188 33.3683C17.6725 31.7582 17.7097 30.1711 17.3779 28.7137H16.7091V27.655H17.2391V26.3688H18.3665C18.0744 26.3688 17.8373 26.1319 17.8373 25.8404V25.3101H16.7091C16.4167 25.3101 16.18 25.547 16.18 25.8404V28.1834C16.18 28.2408 16.1889 28.2945 16.206 28.3472C16.6704 29.776 16.669 31.4084 16.2035 33.0685C16.0021 33.6607 12.7694 43.4697 17.821 46.5419Z" fill="black"/>
<path d="M18.3665 26.3689H20.5401C20.8328 26.3689 21.0699 26.132 21.0699 25.8405V25.3103H20.0101H18.8964H17.8373V25.8405C17.8373 26.132 18.0744 26.3689 18.3665 26.3689Z" fill="black"/>
<path d="M18.3575 41.9438C17.8995 39.8784 18.407 36.8182 18.9806 34.8249C19.0612 34.5445 18.8993 34.2521 18.6184 34.1707C18.3376 34.0893 18.0444 34.2521 17.9631 34.5344C17.3255 36.7469 16.8234 39.9145 17.324 42.1724C17.379 42.4195 17.598 42.5879 17.8402 42.5879C17.8781 42.5879 17.9164 42.5851 17.9551 42.5749C18.2403 42.512 18.4208 42.2298 18.3575 41.9438Z" fill="black"/>
<path d="M19.0121 43.4263C18.8253 43.2033 18.4916 43.1727 18.2671 43.3596C18.0416 43.5466 18.0116 43.8806 18.1995 44.1046C18.3101 44.2387 18.4309 44.3609 18.5577 44.4692C18.6575 44.5534 18.78 44.5959 18.9004 44.5959C19.0511 44.5959 19.1998 44.533 19.3045 44.409C19.4932 44.1869 19.4672 43.8529 19.2445 43.6641C19.1632 43.5938 19.0847 43.5142 19.0121 43.4263Z" fill="black"/>
<path d="M29.2476 41.9438C28.7896 39.8784 29.2975 36.8182 29.8708 34.8249C29.9514 34.5445 29.7894 34.2521 29.5082 34.1707C29.2281 34.0893 28.9342 34.2521 28.8532 34.5344C28.2156 36.7469 27.7138 39.9145 28.2142 42.1724C28.2691 42.4195 28.4874 42.5879 28.7304 42.5879C28.7683 42.5879 28.807 42.5851 28.8457 42.5749C29.1309 42.512 29.3108 42.2298 29.2476 41.9438Z" fill="black"/>
<path d="M29.9026 43.4263C29.715 43.2033 29.3806 43.1727 29.1561 43.3596C28.932 43.5466 28.9013 43.8806 29.089 44.1046C29.1999 44.2378 29.3203 44.36 29.4475 44.4692C29.5473 44.5534 29.6698 44.5959 29.7909 44.5959C29.9409 44.5959 30.0895 44.533 30.1936 44.409C30.3837 44.1879 30.3577 43.8529 30.1346 43.6641C30.053 43.5938 29.9749 43.5142 29.9026 43.4263Z" fill="black"/>
<path d="M30.8732 5.73682V3.92679L30.3439 3.32899L29.8141 3.92679V5.73682H30.8732Z" fill="black"/>
<path d="M29.7866 8.94506C29.7866 8.90989 29.783 8.87658 29.7764 8.84234L28.9888 4.86138L29.8141 3.92676V2.52944H30.8732V3.92676L31.6988 4.86138L30.9111 8.84234C30.9039 8.87658 30.9006 8.90989 30.9006 8.94506V25.3103H31.9601V8.99687L32.7878 4.80956C32.8204 4.64854 32.7749 4.48013 32.6653 4.35613L30.7398 2.17872C30.64 2.06583 30.4954 2.00012 30.3439 2.00012C30.1918 2.00012 30.0479 2.06583 29.947 2.17872L28.0222 4.35613C27.9123 4.48013 27.8672 4.64854 27.8993 4.80956L28.7278 8.99687V25.3103H29.7866V8.94506Z" fill="black"/>
<path d="M30.8732 3.92651V2.5292H29.8141V3.92651L30.3439 3.32871L30.8732 3.92651Z" fill="black"/>
<path d="M19.6519 27.6552H17.2391V28.1013C17.3005 28.3002 17.3312 28.5094 17.3779 28.7139H19.6519V27.6552Z" fill="black"/>
<path d="M17.2391 27.6552H16.7091V28.7139H17.3779C17.3312 28.5094 17.3005 28.3002 17.2391 28.1013V27.6552Z" fill="black"/>
<path d="M20.8567 28.7139H21.5294C21.576 28.5094 21.606 28.3002 21.6682 28.1013V27.6552H20.8567V28.7139Z" fill="black"/>
<path d="M21.5294 28.7139H22.1982V27.6552H21.6682V28.1013C21.606 28.3002 21.576 28.5094 21.5294 28.7139Z" fill="black"/>
<path d="M28.7116 46.5419C29.2147 46.8482 29.7797 47 30.3439 47C30.9079 47 31.4725 46.8482 31.9756 46.5419C37.0276 43.4697 33.7949 33.6607 33.5936 33.0685C33.128 31.4084 33.1273 29.776 33.5918 28.3472C33.6085 28.2945 33.6174 28.2408 33.6174 28.1834V25.8404C33.6174 25.547 33.3804 25.3101 33.0882 25.3101H31.9601V25.8404C31.9601 26.1319 31.7223 26.3688 31.4299 26.3688H32.5583V27.655H33.0882V28.7137H32.4192C32.0877 30.1711 32.1242 31.7582 32.579 33.3683C32.5804 33.3776 32.5836 33.3859 32.5872 33.3961C32.6194 33.4914 35.8059 42.9746 31.4259 45.6369C30.7582 46.0432 29.9286 46.0432 29.2617 45.6369C24.8868 42.9774 28.0678 33.4914 28.0999 33.3961C28.1031 33.3859 28.1065 33.3776 28.1086 33.3683C28.5633 31.7582 28.5995 30.1711 28.2677 28.7137H27.5996V27.655H28.1285V26.3688H29.2566C28.9649 26.3688 28.7278 26.1319 28.7278 25.8404V25.3101H27.5996C27.3072 25.3101 27.0704 25.547 27.0704 25.8404V28.1834C27.0704 28.2408 27.0791 28.2945 27.0961 28.3472C27.5602 29.776 27.5591 31.4084 27.0939 33.0685C26.8922 33.6607 23.6599 43.4697 28.7116 46.5419Z" fill="black"/>
<path d="M29.2566 26.3689H31.4299C31.7223 26.3689 31.9601 26.132 31.9601 25.8405V25.3103H30.9007H29.7866H28.7278V25.8405C28.7278 26.132 28.965 26.3689 29.2566 26.3689Z" fill="black"/>
<path d="M30.5413 27.6552H28.1285V28.1013C28.1907 28.3002 28.2207 28.5094 28.2677 28.7139H30.5413V27.6552Z" fill="black"/>
<path d="M28.1285 27.6552H27.5997V28.7139H28.2677C28.2207 28.5094 28.1907 28.3002 28.1285 28.1013V27.6552Z" fill="black"/>
<path d="M31.7464 28.7139H32.4192C32.4658 28.5094 32.4962 28.3002 32.5584 28.1013V27.6552H31.7464V28.7139Z" fill="black"/>
<path d="M32.4192 28.7139H33.0882V27.6552H32.5584V28.1013C32.4962 28.3002 32.4658 28.5094 32.4192 28.7139Z" fill="black"/>
</svg>
