<svg width="50" height="50" viewBox="0 0 50 50" fill="none" xmlns="http://www.w3.org/2000/svg">
<path d="M8.99118 16.5662L9.53696 17.209H10.6255L10.0805 16.5662H8.99118Z" fill="#E0E0E0"/>
<path d="M15.5331 15.8019L16.1988 15.2584C16.2684 15.2028 16.3543 15.1717 16.4439 15.1717H18.3619C18.5744 15.1717 18.7462 15.345 18.7462 15.5583C18.7462 15.7723 18.5744 15.9441 18.3619 15.9441H16.5809L16.0226 16.4002C15.9507 16.4587 15.8641 16.4876 15.7774 16.4876C15.6664 16.4876 15.5553 16.4388 15.479 16.3447C15.3442 16.181 15.3694 15.9367 15.5331 15.8019ZM14.7488 18.1605L16.0759 19.2446H19.3897V14.5289H16.0759L14.7488 15.6131V16.1803V17.5947V18.1605Z" fill="#E0E0E0"/>
<path d="M5.58401 16.5662L5.09305 16.8869L5.5892 17.209H6.42526L5.87948 16.5662H5.58401Z" fill="#E0E0E0"/>
<path d="M6.89105 16.5662L7.43683 17.209H8.52541L7.97965 16.5662H6.89105Z" fill="#E0E0E0"/>
<path d="M11.6379 17.209H13.978V16.5662H11.0921L11.6379 17.209Z" fill="#E0E0E0"/>
<path d="M33.6538 27.9541L34.4588 28.0481V25.6021C34.4588 24.4136 33.4909 23.4464 32.3031 23.4464H31.5211V24.1188C32.0587 24.4943 33.5176 25.7125 33.6538 27.9541Z" fill="#E0E0E0"/>
<path d="M34.6676 20.8666H32.449V21.1969L34.6676 21.3672V20.8666Z" fill="white"/>
<path d="M28.2917 13.7566C28.4339 13.613 28.6938 13.613 28.8367 13.7566C28.9093 13.8285 28.95 13.9292 28.95 14.0299C28.95 14.1306 28.9093 14.2306 28.8367 14.3024C28.7649 14.3742 28.6657 14.4165 28.5642 14.4165C28.4627 14.4165 28.3635 14.3742 28.2917 14.3024C28.2191 14.2306 28.1784 14.1306 28.1784 14.0299C28.1784 13.9292 28.2191 13.8285 28.2917 13.7566ZM29.8127 13.7566C29.9571 13.613 30.2156 13.613 30.3585 13.7566C30.4303 13.8285 30.4718 13.9292 30.4718 14.0299C30.4718 14.1306 30.4303 14.2306 30.3585 14.3024C30.2859 14.3742 30.1867 14.4165 30.086 14.4165C29.9853 14.4165 29.8846 14.3742 29.8127 14.3024C29.7409 14.2306 29.7002 14.1306 29.7002 14.0299C29.7002 13.9292 29.7409 13.8285 29.8127 13.7566ZM31.6774 20.7435C31.6774 20.3851 31.9684 20.0956 32.3254 20.0956H34.7906C35.149 20.0956 35.4393 20.3851 35.4393 20.7435V21.5011C35.4393 21.6811 35.363 21.8543 35.2319 21.9765C35.1112 22.0884 34.9535 22.1498 34.7906 22.1498C34.7735 22.1498 34.7573 22.1491 34.7417 22.1469L32.2765 21.9565C31.941 21.9321 31.6774 21.6477 31.6774 21.3108V20.7435ZM38.7643 18.79H39.4989C39.7114 18.79 39.8832 18.9618 39.8832 19.1751C39.8832 19.3884 39.7114 19.5617 39.4989 19.5617H38.7643C38.551 19.5617 38.3785 19.3884 38.3785 19.1751C38.3785 18.9618 38.551 18.79 38.7643 18.79ZM38.7643 17.2638H39.4989C39.7114 17.2638 39.8832 17.4363 39.8832 17.6503C39.8832 17.8629 39.7114 18.0354 39.4989 18.0354H38.7643C38.551 18.0354 38.3785 17.8629 38.3785 17.6503C38.3785 17.4363 38.551 17.2638 38.7643 17.2638ZM38.7643 15.739H39.4989C39.7114 15.739 39.8832 15.9108 39.8832 16.1241C39.8832 16.3366 39.7114 16.5107 39.4989 16.5107H38.7643C38.551 16.5107 38.3785 16.3366 38.3785 16.1241C38.3785 15.9108 38.551 15.739 38.7643 15.739ZM38.7643 14.2135H39.4989C39.7114 14.2135 39.8832 14.3861 39.8832 14.5994C39.8832 14.8119 39.7114 14.9837 39.4989 14.9837H38.7643C38.551 14.9837 38.3785 14.8119 38.3785 14.5994C38.3785 14.3861 38.551 14.2135 38.7643 14.2135ZM40.5356 24.8239C40.7356 24.752 40.9563 24.8557 41.0288 25.0564C41.7368 27.0107 42.5906 30.1187 42.6343 33.828C42.638 34.0406 42.4669 34.2159 42.2537 34.2191C42.2522 34.2191 42.2514 34.2191 42.2485 34.2191C42.0374 34.2191 41.8656 34.0487 41.8634 33.837C41.819 30.0452 40.8674 26.8722 40.3038 25.3178C40.2313 25.1186 40.3349 24.8972 40.5356 24.8239ZM40.8318 18.79H43.0297C43.243 18.79 43.4163 18.9618 43.4163 19.1751C43.4163 19.3884 43.243 19.5617 43.0297 19.5617H40.8318C40.6193 19.5617 40.4475 19.3884 40.4475 19.1751C40.4475 18.9618 40.6193 18.79 40.8318 18.79ZM40.8318 17.2638H43.0297C43.243 17.2638 43.4163 17.4363 43.4163 17.6503C43.4163 17.8629 43.243 18.0354 43.0297 18.0354H40.8318C40.6193 18.0354 40.4475 17.8629 40.4475 17.6503C40.4475 17.4363 40.6193 17.2638 40.8318 17.2638ZM40.8318 15.739H43.0297C43.243 15.739 43.4163 15.9108 43.4163 16.1241C43.4163 16.3366 43.243 16.5107 43.0297 16.5107H40.8318C40.6193 16.5107 40.4475 16.3366 40.4475 16.1241C40.4475 15.9108 40.6193 15.739 40.8318 15.739ZM40.8318 14.2135H43.0297C43.243 14.2135 43.4163 14.3861 43.4163 14.5994C43.4163 14.8119 43.243 14.9837 43.0297 14.9837H40.8318C40.6193 14.9837 40.4475 14.8119 40.4475 14.5994C40.4475 14.3861 40.6193 14.2135 40.8318 14.2135ZM42.5721 35.8887C42.5573 36.091 42.3884 36.2458 42.1878 36.2458C42.1789 36.2458 42.1692 36.2458 42.1589 36.2452C41.9463 36.2287 41.7871 36.0435 41.8027 35.8318C41.813 35.6927 41.8212 35.5555 41.8301 35.4178C41.8404 35.2055 42.027 35.0424 42.2351 35.0536C42.4492 35.0646 42.6121 35.2469 42.5995 35.46C42.5913 35.6024 42.5832 35.7444 42.5721 35.8887ZM28.4235 21.0027C29.6424 21.0027 30.748 21.6374 31.3634 22.6741H32.3031C33.9168 22.6741 35.2305 23.9886 35.2305 25.6022V28.14L36.5605 28.2925C36.636 28.3015 36.7093 28.3333 36.7685 28.3842C37.5668 29.0724 38.103 32.0663 38.1837 33.9628C38.2222 34.889 37.7135 35.7681 36.8855 36.2015C36.6078 36.3467 36.4361 36.6316 36.4361 36.9449V37.1462H43.3519C44.0191 31.7603 42.7209 27.084 41.876 24.7491C41.5383 23.816 41.9086 22.7682 42.7594 22.2609L44.596 21.1634C44.9862 20.9316 45.2291 20.5036 45.2291 20.0489V14.1802C45.2291 13.4041 44.596 12.7717 43.8199 12.7717H27.3053V21.0027H28.4235Z" fill="#514ED0"/>
<path d="M20.1606 18.6677H20.676V15.1058H20.1606V18.6677Z" fill="#E0E0E0"/>
<path d="M24.1899 18.0021H25.7324C25.9457 18.0021 26.1175 18.1746 26.1175 18.3879C26.1175 18.6004 25.9457 18.7729 25.7324 18.7729H24.1899C23.9758 18.7729 23.8033 18.6004 23.8033 18.3879C23.8033 18.1746 23.9758 18.0021 24.1899 18.0021ZM24.1899 16.501H25.7324C25.9457 16.501 26.1175 16.675 26.1175 16.8876C26.1175 17.1008 25.9457 17.2726 25.7324 17.2726H24.1899C23.9758 17.2726 23.8033 17.1008 23.8033 16.8876C23.8033 16.675 23.9758 16.501 24.1899 16.501ZM24.1899 15.0014H25.7324C25.9457 15.0014 26.1175 15.1725 26.1175 15.3865C26.1175 15.599 25.9457 15.7731 25.7324 15.7731H24.1899C23.9758 15.7731 23.8033 15.599 23.8033 15.3865C23.8033 15.1725 23.9758 15.0014 24.1899 15.0014ZM24.1899 13.4996H25.7324C25.9457 13.4996 26.1175 13.6729 26.1175 13.8854C26.1175 14.0995 25.9457 14.272 25.7324 14.272H24.1899C23.9758 14.272 23.8033 14.0995 23.8033 13.8854C23.8033 13.6729 23.9758 13.4996 24.1899 13.4996ZM25.7324 20.2733H24.1899C23.9758 20.2733 23.8033 20.1007 23.8033 19.8875C23.8033 19.6749 23.9758 19.5016 24.1899 19.5016H25.7324C25.9457 19.5016 26.1175 19.6749 26.1175 19.8875C26.1175 20.1007 25.9457 20.2733 25.7324 20.2733ZM23.3871 14.1898H22.6155V13.0242L21.4477 13.6374V20.1363L22.6155 20.7494V15.0829H23.3871V21.0027H26.5336V12.7717H23.3871V14.1898Z" fill="#E0E0E0"/>
<path d="M34.4588 28.4835V28.0482L33.6538 27.9541C33.5176 25.7125 32.0587 24.4944 31.5211 24.1189V23.4465H31.1368C30.9894 23.4465 30.8568 23.3643 30.7917 23.234C30.7791 23.2095 30.7628 23.1881 30.7495 23.1636V24.3285C30.7495 24.4655 30.825 24.5929 30.9427 24.6632C31.0227 24.7084 32.8941 25.8236 32.8941 28.2983C32.8941 28.4939 33.0407 28.6585 33.234 28.6822L34.7994 28.8665C34.6054 28.8428 34.4588 28.6784 34.4588 28.4835Z" fill="black"/>
<path d="M22.6155 21.3876C22.6155 21.1751 22.788 21.0025 23.0013 21.0025H23.3871V15.0827H22.6155V20.7492L21.4477 20.1361V13.6372L22.6155 13.024V14.1896H23.3871V12.7715H23.0013C22.788 12.7715 22.6155 12.5982 22.6155 12.3857C22.6155 12.2324 22.7066 12.1035 22.8354 12.0406C22.831 12.0436 22.8258 12.0413 22.8221 12.045L20.8827 13.0625C20.7553 13.1284 20.6761 13.2603 20.6761 13.4047V14.3348H21.0611V15.1057H20.6761V18.6676H21.0611V19.4392H20.6761V20.3701C20.6761 20.513 20.7553 20.6456 20.8827 20.7122L22.8221 21.7297C22.8258 21.7319 22.8317 21.7312 22.8362 21.7327C22.7073 21.6705 22.6155 21.5416 22.6155 21.3876Z" fill="black"/>
<path d="M19.7756 18.6676H20.1606V15.1056H19.7756V14.3348H20.1606V14.143C20.1606 13.9297 19.9888 13.7571 19.7756 13.7571H15.9389C15.85 13.7571 15.7634 13.7882 15.6945 13.8438L14.1194 15.1316C14.029 15.2041 13.9779 15.3145 13.9779 15.43V15.7943H14.3637C14.5763 15.7943 14.7488 15.9661 14.7488 16.1802V15.6129L16.0758 14.5288H19.3897V19.2445H16.0758L14.7488 18.1603V17.5946C14.7488 17.8071 14.5763 17.9804 14.3637 17.9804H13.9779V18.344C13.9779 18.4595 14.029 18.5691 14.1194 18.6432L15.6945 19.9295C15.7634 19.985 15.85 20.0161 15.9389 20.0161H19.7756C19.9888 20.0161 20.1606 19.8436 20.1606 19.6303V19.4392H19.7756V18.6676Z" fill="black"/>
<path d="M15.7774 16.4875C15.8641 16.4875 15.9507 16.4587 16.0225 16.4002L16.5809 15.944H18.3619C18.5744 15.944 18.7462 15.7722 18.7462 15.5582C18.7462 15.3449 18.5744 15.1716 18.3619 15.1716H16.4439C16.3543 15.1716 16.2684 15.2027 16.1988 15.2583L15.5331 15.8018C15.3694 15.9366 15.3442 16.181 15.479 16.3446C15.5553 16.4387 15.6663 16.4875 15.7774 16.4875Z" fill="black"/>
<path d="M20.676 15.1057V14.3348H20.1606V15.1057H20.676Z" fill="black"/>
<path d="M21.0611 15.1057V14.3348H20.6761V15.1057H21.0611Z" fill="black"/>
<path d="M19.7755 15.1057H20.1606V14.3348H19.7755V15.1057Z" fill="black"/>
<path d="M20.1606 18.6678V19.4395H20.676V18.6678H20.1606Z" fill="black"/>
<path d="M21.0611 18.6678H20.6761V19.4395H21.0611V18.6678Z" fill="black"/>
<path d="M19.7755 18.6678V19.4395H20.1606V18.6678H19.7755Z" fill="black"/>
<path d="M11.6378 17.2091L11.7526 17.3453L11.1654 17.8437L10.6255 17.2091H9.53695L9.65172 17.3453L9.06449 17.8437L8.52538 17.2091H7.4368L7.55233 17.3453L6.96361 17.8437L6.42524 17.2091H5.58918L5.09302 16.8869L5.58399 16.5663H5.87946L5.76393 16.4293L6.35193 15.9309L6.89102 16.5663H7.97961L7.86483 16.4293L8.45206 15.9309L8.99117 16.5663H10.0805L9.96422 16.4293L10.553 15.9309L11.0921 16.5663H13.9779V15.7947H5.4692C5.39367 15.7947 5.32111 15.8154 5.25742 15.8569L4.1755 16.5648C4.0659 16.6359 4 16.7566 4 16.8877C4 17.0188 4.06664 17.1387 4.1755 17.2106L5.26333 17.9178C5.32628 17.9585 5.3996 17.9807 5.47365 17.9807H13.9779V17.2091H11.6378Z" fill="black"/>
<path d="M14.7488 17.5949V16.1805C14.7488 15.9665 14.5763 15.7947 14.3637 15.7947H13.9779V16.5663V17.2091V17.9807H14.3637C14.5763 17.9807 14.7488 17.8074 14.7488 17.5949Z" fill="black"/>
<path d="M5.87949 16.5662L6.42527 17.209H7.43683L6.89105 16.5662H5.87949Z" fill="black"/>
<path d="M6.35194 15.9308L5.76395 16.4292L5.87947 16.5662H6.89103L6.35194 15.9308Z" fill="black"/>
<path d="M6.96363 17.8435L7.55235 17.3451L7.43682 17.2089H6.42526L6.96363 17.8435Z" fill="black"/>
<path d="M7.97964 16.5662L8.52541 17.209H9.53698L8.9912 16.5662H7.97964Z" fill="black"/>
<path d="M9.0645 17.8435L9.65174 17.3451L9.53697 17.2089H8.52539L9.0645 17.8435Z" fill="black"/>
<path d="M8.45207 15.9308L7.86484 16.4292L7.97962 16.5662H8.99118L8.45207 15.9308Z" fill="black"/>
<path d="M10.0805 16.5662L10.6255 17.209H11.6378L11.0921 16.5662H10.0805Z" fill="black"/>
<path d="M11.1654 17.8435L11.7526 17.3451L11.6378 17.2089H10.6255L11.1654 17.8435Z" fill="black"/>
<path d="M10.553 15.9308L9.96423 16.4292L10.0805 16.5662H11.0921L10.553 15.9308Z" fill="black"/>
<path d="M40.8318 14.9836H43.0297C43.243 14.9836 43.4163 14.8118 43.4163 14.5993C43.4163 14.386 43.243 14.2135 43.0297 14.2135H40.8318C40.6193 14.2135 40.4475 14.386 40.4475 14.5993C40.4475 14.8118 40.6193 14.9836 40.8318 14.9836Z" fill="black"/>
<path d="M38.7642 14.9836H39.4988C39.7114 14.9836 39.8832 14.8118 39.8832 14.5993C39.8832 14.386 39.7114 14.2135 39.4988 14.2135H38.7642C38.551 14.2135 38.3784 14.386 38.3784 14.5993C38.3784 14.8118 38.551 14.9836 38.7642 14.9836Z" fill="black"/>
<path d="M40.8318 16.5105H43.0297C43.243 16.5105 43.4163 16.3365 43.4163 16.1239C43.4163 15.9107 43.243 15.7389 43.0297 15.7389H40.8318C40.6193 15.7389 40.4475 15.9107 40.4475 16.1239C40.4475 16.3365 40.6193 16.5105 40.8318 16.5105Z" fill="black"/>
<path d="M38.7642 16.5105H39.4988C39.7114 16.5105 39.8832 16.3365 39.8832 16.1239C39.8832 15.9107 39.7114 15.7389 39.4988 15.7389H38.7642C38.551 15.7389 38.3784 15.9107 38.3784 16.1239C38.3784 16.3365 38.551 16.5105 38.7642 16.5105Z" fill="black"/>
<path d="M40.8318 18.0354H43.0297C43.243 18.0354 43.4163 17.8629 43.4163 17.6503C43.4163 17.4363 43.243 17.2638 43.0297 17.2638H40.8318C40.6193 17.2638 40.4475 17.4363 40.4475 17.6503C40.4475 17.8629 40.6193 18.0354 40.8318 18.0354Z" fill="black"/>
<path d="M38.7642 18.0354H39.4988C39.7114 18.0354 39.8832 17.8629 39.8832 17.6503C39.8832 17.4363 39.7114 17.2638 39.4988 17.2638H38.7642C38.551 17.2638 38.3784 17.4363 38.3784 17.6503C38.3784 17.8629 38.551 18.0354 38.7642 18.0354Z" fill="black"/>
<path d="M40.8318 19.5618H43.0297C43.243 19.5618 43.4163 19.3885 43.4163 19.1752C43.4163 18.9619 43.243 18.7901 43.0297 18.7901H40.8318C40.6193 18.7901 40.4475 18.9619 40.4475 19.1752C40.4475 19.3885 40.6193 19.5618 40.8318 19.5618Z" fill="black"/>
<path d="M38.7642 19.5618H39.4988C39.7114 19.5618 39.8832 19.3885 39.8832 19.1752C39.8832 18.9619 39.7114 18.7901 39.4988 18.7901H38.7642C38.551 18.7901 38.3784 18.9619 38.3784 19.1752C38.3784 19.3885 38.551 19.5618 38.7642 19.5618Z" fill="black"/>
<path d="M23.0013 21.7734C22.9443 21.7734 22.8895 21.7579 22.8362 21.7327C22.8858 21.7579 22.9413 21.7734 23.0013 21.7734Z" fill="black"/>
<path d="M26.5336 21.3876V21.0025H23.3871V21.3876C23.3871 21.5224 23.3168 21.649 23.2013 21.7179C23.1405 21.7557 23.0709 21.7734 23.0013 21.7734H26.9202C26.7069 21.7734 26.5336 21.6016 26.5336 21.3876Z" fill="black"/>
<path d="M23.2012 12.0556C23.3167 12.126 23.3871 12.2504 23.3871 12.3859V12.7717H26.5336V12.3859C26.5336 12.1719 26.7069 12.0001 26.9202 12.0001H23.0013C22.9413 12.0001 22.8857 12.0171 22.8354 12.0408C22.9524 11.986 23.0901 11.9875 23.2012 12.0556Z" fill="black"/>
<path d="M22.6155 12.3859C22.6155 12.5984 22.788 12.7717 23.0013 12.7717H23.3871V12.3859C23.3871 12.2504 23.3168 12.126 23.2012 12.0556C23.0902 11.9875 22.9524 11.986 22.8354 12.0408C22.7066 12.1038 22.6155 12.2326 22.6155 12.3859Z" fill="black"/>
<path d="M23.3871 21.3876V21.0025H23.0013C22.788 21.0025 22.6155 21.1751 22.6155 21.3876C22.6155 21.5417 22.7073 21.6705 22.8362 21.7327C22.8895 21.7579 22.9443 21.7734 23.0013 21.7734C23.0709 21.7734 23.1405 21.7557 23.2012 21.7179C23.3168 21.649 23.3871 21.5224 23.3871 21.3876Z" fill="black"/>
<path d="M24.1898 14.272H25.7324C25.9456 14.272 26.1174 14.0994 26.1174 13.8854C26.1174 13.6729 25.9456 13.4996 25.7324 13.4996H24.1898C23.9758 13.4996 23.8033 13.6729 23.8033 13.8854C23.8033 14.0994 23.9758 14.272 24.1898 14.272Z" fill="black"/>
<path d="M24.1898 15.7729H25.7324C25.9456 15.7729 26.1174 15.5989 26.1174 15.3864C26.1174 15.1724 25.9456 15.0013 25.7324 15.0013H24.1898C23.9758 15.0013 23.8033 15.1724 23.8033 15.3864C23.8033 15.5989 23.9758 15.7729 24.1898 15.7729Z" fill="black"/>
<path d="M24.1898 17.2725H25.7324C25.9456 17.2725 26.1174 17.1007 26.1174 16.8874C26.1174 16.6749 25.9456 16.5008 25.7324 16.5008H24.1898C23.9758 16.5008 23.8033 16.6749 23.8033 16.8874C23.8033 17.1007 23.9758 17.2725 24.1898 17.2725Z" fill="black"/>
<path d="M24.1898 18.7729H25.7324C25.9456 18.7729 26.1174 18.6004 26.1174 18.3879C26.1174 18.1746 25.9456 18.0021 25.7324 18.0021H24.1898C23.9758 18.0021 23.8033 18.1746 23.8033 18.3879C23.8033 18.6004 23.9758 18.7729 24.1898 18.7729Z" fill="black"/>
<path d="M25.7324 19.5016H24.1898C23.9758 19.5016 23.8033 19.6748 23.8033 19.8874C23.8033 20.1007 23.9758 20.2732 24.1898 20.2732H25.7324C25.9456 20.2732 26.1174 20.1007 26.1174 19.8874C26.1174 19.6748 25.9456 19.5016 25.7324 19.5016Z" fill="black"/>
<path d="M43.8199 12H26.9202C27.1328 12 27.3053 12.1718 27.3053 12.3858V12.7716H43.8199C44.596 12.7716 45.2291 13.404 45.2291 14.1801V20.0488C45.2291 20.5035 44.9862 20.9315 44.596 21.1633L42.7594 22.2607C41.9086 22.768 41.5383 23.8159 41.876 24.7489C42.7209 27.0838 44.0191 31.7601 43.3519 37.1461H36.4361V36.9447C36.4361 36.6315 36.6078 36.3465 36.8855 36.2013C37.7135 35.768 38.2222 34.8889 38.1837 33.9626C38.103 32.0662 37.5668 29.0722 36.7686 28.3841C36.7093 28.3332 36.636 28.3013 36.5605 28.2924L35.2305 28.1398V25.602C35.2305 23.9884 33.9168 22.674 32.3031 22.674H31.3634C30.748 21.6372 29.6424 21.0026 28.4235 21.0026H27.3053V21.3877C27.3053 21.6017 27.1328 21.7735 26.9202 21.7735H28.4235C29.404 21.7735 30.2852 22.3067 30.7495 23.1635V23.0598H31.5211V23.4463H32.3031C33.491 23.4463 34.4588 24.4135 34.4588 25.602V28.048L34.8891 28.0998L34.7995 28.8663H34.8002L36.3346 29.0434C36.7634 29.5941 37.321 31.8565 37.4128 33.9951C37.4395 34.6254 37.0929 35.2221 36.5279 35.5169C35.9954 35.7954 35.6644 36.3428 35.6644 36.9447V37.532C35.6644 37.7452 35.8362 37.917 36.0502 37.917H43.691C43.8843 37.917 44.0472 37.7764 44.0731 37.5846C44.8603 31.8944 43.4874 26.9365 42.601 24.4853C42.3884 23.8988 42.621 23.242 43.1534 22.9235L44.9921 21.8268C45.6142 21.4551 46 20.7745 46 20.0488V14.1801C46 12.9774 45.0225 12 43.8199 12Z" fill="black"/>
<path d="M34.4588 28.0482V28.4835C34.4588 28.6784 34.6054 28.8428 34.7994 28.8665L34.889 28.1L34.4588 28.0482Z" fill="black"/>
<path d="M31.1368 23.4465H31.5211V23.06H30.7495V23.1637C30.7628 23.1881 30.7791 23.2096 30.7917 23.234C30.8568 23.3643 30.9894 23.4465 31.1368 23.4465Z" fill="black"/>
<path d="M27.3053 21.3876V12.3857C27.3053 12.1717 27.1327 11.9999 26.9202 11.9999C26.7069 11.9999 26.5336 12.1717 26.5336 12.3857V12.7715V21.0025V21.3876C26.5336 21.6016 26.7069 21.7734 26.9202 21.7734C27.1327 21.7734 27.3053 21.6016 27.3053 21.3876Z" fill="black"/>
<path d="M42.2351 35.0535C42.027 35.0422 41.8404 35.2054 41.83 35.4177C41.8212 35.5554 41.813 35.6925 41.8027 35.8316C41.7871 36.0434 41.9463 36.2285 42.1588 36.245C42.1692 36.2456 42.1788 36.2456 42.1877 36.2456C42.3884 36.2456 42.5572 36.0908 42.5721 35.8886C42.5832 35.7443 42.5913 35.6022 42.5995 35.4599C42.6121 35.2467 42.4491 35.0645 42.2351 35.0535Z" fill="black"/>
<path d="M41.8634 33.8369C41.8656 34.0487 42.0374 34.219 42.2485 34.219C42.2514 34.219 42.2522 34.219 42.2536 34.219C42.4669 34.2158 42.638 34.0405 42.6343 33.8279C42.5906 30.1186 41.7368 27.0106 41.0288 25.0563C40.9562 24.8556 40.7355 24.752 40.5356 24.8238C40.3349 24.8971 40.2313 25.1185 40.3038 25.3177C40.8674 26.8721 41.8189 30.0451 41.8634 33.8369Z" fill="black"/>
<path d="M32.449 20.8666H34.6676V21.3672L32.449 21.1968V20.8666ZM32.2764 21.9566L34.7417 22.1469C34.7572 22.1492 34.7735 22.1499 34.7905 22.1499C34.9535 22.1499 35.1112 22.0884 35.2319 21.9766C35.363 21.8544 35.4393 21.6811 35.4393 21.5012V20.7436C35.4393 20.3852 35.149 20.0957 34.7905 20.0957H32.3253C31.9684 20.0957 31.6774 20.3852 31.6774 20.7436V21.3109C31.6774 21.6478 31.941 21.9322 32.2764 21.9566Z" fill="black"/>
<path d="M28.5642 14.4163C28.6656 14.4163 28.7649 14.374 28.8367 14.3022C28.9093 14.2304 28.95 14.1304 28.95 14.0297C28.95 13.929 28.9093 13.8283 28.8367 13.7564C28.6938 13.6128 28.4339 13.6128 28.2917 13.7564C28.2191 13.8283 28.1784 13.929 28.1784 14.0297C28.1784 14.1304 28.2191 14.2304 28.2917 14.3022C28.3635 14.374 28.4627 14.4163 28.5642 14.4163Z" fill="black"/>
<path d="M30.086 14.4163C30.1867 14.4163 30.2859 14.374 30.3585 14.3022C30.4303 14.2304 30.4718 14.1304 30.4718 14.0297C30.4718 13.929 30.4303 13.8283 30.3585 13.7564C30.2156 13.6128 29.9571 13.6128 29.8127 13.7564C29.7409 13.8283 29.7001 13.929 29.7001 14.0297C29.7001 14.1304 29.7409 14.2304 29.8127 14.3022C29.8845 14.374 29.9853 14.4163 30.086 14.4163Z" fill="black"/>
</svg>
