<svg width="50" height="50" viewBox="0 0 50 50" fill="none" xmlns="http://www.w3.org/2000/svg">
<path d="M28.4821 9.0552C29.9361 8.21521 31.5862 7.77143 33.2545 7.77143C36.6669 7.77143 39.8453 9.60483 41.5499 12.5559C42.2643 13.7941 42.6861 15.1371 42.8029 16.5442C42.826 16.8219 42.6185 17.0666 42.3405 17.0899C42.3257 17.0909 42.312 17.0919 42.298 17.0919C42.0374 17.0919 41.8162 16.8918 41.7947 16.6267C41.69 15.3692 41.3129 14.1708 40.6733 13.0628C39.1492 10.4225 36.3073 8.78329 33.2545 8.78329C31.7633 8.78329 30.2885 9.1795 28.9882 9.93111C27.7542 10.6429 26.7141 11.6528 25.9786 12.8492C25.8325 13.0871 25.5211 13.1609 25.2829 13.0153C25.045 12.8686 24.9699 12.5579 25.116 12.32C25.9394 10.9799 27.1033 9.85051 28.4821 9.0552ZM34.9181 20.2032C34.3993 20.5033 33.8318 20.646 33.2704 20.646C32.1263 20.646 31.0127 20.0527 30.4 18.9932C29.4888 17.4133 30.0317 15.3866 31.6116 14.4748C33.1903 13.563 35.217 14.1068 36.1294 15.6848C37.0417 17.2657 36.4985 19.2923 34.9181 20.2032ZM25.1842 14.5292C25.1167 14.7243 25.0553 14.9244 25.0014 15.1244C24.9422 15.3517 24.7373 15.5002 24.514 15.5002C24.4707 15.5002 24.4259 15.4944 24.3823 15.4828C24.1126 15.4099 23.9522 15.1332 24.0251 14.8632C24.0842 14.6389 24.1532 14.4165 24.2283 14.199C24.3194 13.9349 24.608 13.7941 24.8713 13.8853C25.1361 13.9776 25.2756 14.265 25.1842 14.5292ZM22.884 14.5573C22.1417 17.3298 22.5225 20.2265 23.9586 22.7125C25.3932 25.1984 27.7106 26.9765 30.4834 27.7203C33.2563 28.4622 36.1525 28.0806 38.6383 26.6463C41.1243 25.211 42.9027 22.8931 43.6453 20.1206C44.3889 17.3472 44.0076 14.4515 42.5723 11.9665C41.1365 9.47956 38.8188 7.7015 36.0463 6.95863C35.1207 6.71003 34.1808 6.58769 33.2472 6.58769C31.3855 6.58769 29.5473 7.07613 27.8919 8.03168C25.4054 9.4679 23.6271 11.7849 22.884 14.5573Z" fill="#E0E0E0"/>
<path d="M30.2213 28.6971C27.1878 27.8843 24.6523 25.9383 23.082 23.2183C21.5112 20.4983 21.0943 17.3297 21.9068 14.296C22.6761 11.4265 24.4669 9.01335 26.9594 7.43049L26.6969 6.97408C24.0826 8.62783 22.2043 11.1536 21.3982 14.1591C20.5495 17.3297 20.9847 20.6401 22.626 23.4824C24.267 26.3228 26.9154 28.3553 30.0848 29.205C33.0909 30.01 36.2181 29.6468 38.9568 28.2096L38.6898 27.7464C36.9965 28.6311 35.1549 29.1021 33.284 29.1021C32.2625 29.1021 31.2345 28.969 30.2213 28.6971Z" fill="#E0E0E0"/>
<path d="M12.1278 12.3667L11.4124 11.651L12.8481 10.2147L13.0689 9.99429L12.3114 9.23684L9.46985 12.0782L10.227 12.8366L10.4477 12.6152C10.6457 12.4181 10.9663 12.4181 11.1635 12.6152L20.3334 21.7852L20.6323 21.4861C20.2663 20.3781 20.0558 19.2331 19.9928 18.0756L13.2062 11.2887L12.1278 12.3667Z" fill="#D09C4E"/>
<path d="M7.54166 37.8866C7.5569 37.7361 7.62595 37.5943 7.73286 37.4866L20.124 25.0946C20.322 24.8975 20.6418 24.8975 20.8398 25.0946C21.0374 25.2927 21.0374 25.6122 20.8398 25.8103L8.53517 38.1148L8.20326 41.2456C8.17481 41.5049 7.95592 41.6971 7.70063 41.6971C7.68315 41.6971 7.6646 41.6971 7.64605 41.6952C7.36871 41.6651 7.16731 41.4165 7.19654 41.1378L7.54166 37.8866ZM18.7482 37.4263C18.6495 37.5254 18.5198 37.5739 18.3901 37.5739C18.2607 37.5739 18.131 37.5254 18.0328 37.4263L16.8538 36.2475C16.6562 36.0513 16.6562 35.7299 16.8538 35.5327C17.0511 35.3346 17.3712 35.3346 17.5692 35.5327L18.7482 36.7107C18.9454 36.9088 18.9454 37.2282 18.7482 37.4263ZM17.3693 38.8043C17.2703 38.9043 17.1406 38.9538 17.0116 38.9538C16.8819 38.9538 16.7529 38.9043 16.6543 38.8043L15.475 37.6264C15.2777 37.4293 15.2777 37.1088 15.475 36.9107C15.6726 36.7136 15.9928 36.7136 16.1904 36.9107L17.3693 38.0906C17.5666 38.2877 17.5666 38.6082 17.3693 38.8043ZM15.9904 40.1842C15.8919 40.2833 15.7625 40.3328 15.6328 40.3328C15.5034 40.3328 15.3741 40.2833 15.2747 40.1842L14.0964 39.0053C13.8977 38.8082 13.8977 38.4877 14.0964 38.2896C14.2942 38.0925 14.6142 38.0925 14.8115 38.2896L15.9904 39.4685C16.1881 39.6656 16.1881 39.9861 15.9904 40.1842ZM6.36801 37.7623L6.0225 41.0145C5.96365 41.5709 6.15681 42.1167 6.55242 42.5138L8.09061 44.051C8.48739 44.4472 9.03363 44.6415 9.59083 44.5813L12.8424 44.2365C13.2612 44.1919 13.6549 44.0035 13.9523 43.7063L25.0575 32.601C25.0951 32.5641 25.1383 32.5321 25.1862 32.5078L29.7775 30.1685C26.3674 29.2411 23.5171 27.0494 21.7506 23.9876C21.4752 23.5108 21.2415 23.0184 21.0299 22.5193L6.89793 36.6514C6.6002 36.9495 6.41239 37.3438 6.36801 37.7623Z" fill="#D09C4E"/>
<path d="M27.8752 33.1109C28.1377 33.0021 28.3194 32.7798 28.3748 32.5011C28.4063 32.3418 28.3812 32.1874 28.3259 32.0437L25.7165 33.3731L24.6362 34.4529L24.9062 34.7229C25.5673 34.1995 26.5631 33.6576 27.8752 33.1109Z" fill="white"/>
<path d="M30.0848 29.2051C26.9155 28.3554 24.267 26.323 22.626 23.4826C20.9847 20.6402 20.5496 17.3298 21.3982 14.1592C22.2043 11.1537 24.0826 8.62796 26.697 6.97421L26.1909 6.0983C23.343 7.88703 21.2961 10.6323 20.4214 13.898C20.1782 14.805 20.0387 15.7236 19.989 16.6394L20.8398 17.491L20.124 18.2057L19.9927 18.0756C20.0558 19.2331 20.2663 20.378 20.6323 21.486L20.8534 21.2656L21.5685 21.9813L21.0299 22.5192C21.2415 23.0184 21.4752 23.5107 21.7506 23.9875C23.5171 27.0493 26.3674 29.2411 29.7775 30.1684L31.0437 29.5227L31.503 30.4238L31.3711 30.4908C32.0099 30.585 32.6486 30.6423 33.2867 30.6423C35.4242 30.6423 37.5291 30.0995 39.4583 29.0789L38.9569 28.2098C36.2181 29.647 33.091 30.0102 30.0848 29.2051Z" fill="black"/>
<path d="M27.2004 7.84731L26.9594 7.43072C24.4669 9.01358 22.6761 11.4267 21.9068 14.2962C21.0943 17.3299 21.5112 20.4985 23.082 23.2185C24.6524 25.9385 27.1878 27.8846 30.2213 28.6974C31.2345 28.9693 32.2625 29.1023 33.284 29.1023C35.1549 29.1023 36.9965 28.6313 38.6898 27.7467L38.4531 27.3379C38.3131 27.0961 38.3962 26.7863 38.6382 26.6464C36.1525 28.0807 33.2563 28.4624 30.4834 27.7205C27.7106 26.9766 25.3932 25.1986 23.9586 22.7126C22.5225 20.2266 22.1416 17.3299 22.884 14.5575C23.6271 11.785 25.4053 9.46804 27.8919 8.03181C27.8119 8.07842 27.7249 8.10075 27.6388 8.10075C27.4644 8.10075 27.2945 8.00949 27.2004 7.84731Z" fill="black"/>
<path d="M36.308 5.98092C33.4384 5.21182 30.4531 5.55753 27.8358 6.92481L28.0766 7.3414C28.2166 7.5832 28.1335 7.89296 27.8919 8.03183C29.5473 7.07628 31.3854 6.58784 33.2472 6.58784C34.1808 6.58784 35.1207 6.71018 36.0463 6.95878C38.8188 7.70166 41.1364 9.47971 42.5723 11.9666C44.0076 14.4516 44.3889 17.3474 43.6453 20.1208C42.9026 22.8932 41.1243 25.2112 38.6382 26.6464C38.881 26.5066 39.1902 26.5901 39.329 26.8319L39.5699 27.2485C42.0621 25.6657 43.854 23.2525 44.6225 20.382C45.4358 17.3493 45.0177 14.1797 43.4485 11.4607C41.8769 8.73975 39.3423 6.79468 36.308 5.98092Z" fill="black"/>
<path d="M25.2829 13.0155C25.5211 13.1611 25.8325 13.0873 25.9786 12.8494C26.7141 11.653 27.7542 10.6431 28.9882 9.9313C30.2885 9.17969 31.7633 8.78348 33.2545 8.78348C36.3073 8.78348 39.1492 10.4227 40.6734 13.063C41.3129 14.171 41.69 15.3693 41.7947 16.6269C41.8162 16.892 42.0374 17.092 42.298 17.092C42.312 17.092 42.3257 17.0911 42.3405 17.0901C42.6185 17.0668 42.826 16.8221 42.8029 16.5443C42.6861 15.1372 42.2643 13.7943 41.5499 12.5561C39.8453 9.60502 36.6669 7.77162 33.2545 7.77162C31.5862 7.77162 29.9361 8.2154 28.4821 9.05539C27.1033 9.8507 25.9395 10.9801 25.116 12.3201C24.9699 12.5581 25.045 12.8688 25.2829 13.0155Z" fill="black"/>
<path d="M24.8713 13.8854C24.608 13.7941 24.3194 13.9349 24.2283 14.199C24.1532 14.4165 24.0842 14.6389 24.0251 14.8632C23.9522 15.1332 24.1127 15.4099 24.3823 15.4828C24.4259 15.4944 24.4707 15.5002 24.514 15.5002C24.7374 15.5002 24.9422 15.3517 25.0014 15.1244C25.0553 14.9244 25.1168 14.7244 25.1842 14.5292C25.2756 14.265 25.1361 13.9776 24.8713 13.8854Z" fill="black"/>
<path d="M34.4129 19.3273C33.317 19.9604 31.9097 19.5836 31.2766 18.4873C30.6435 17.3909 31.021 15.9839 32.1172 15.3517C32.4776 15.1429 32.8717 15.0438 33.2613 15.0438C34.0556 15.0438 34.8283 15.4556 35.2528 16.1917C35.8854 17.288 35.5091 18.6941 34.4129 19.3273ZM31.6116 14.4748C30.0317 15.3866 29.4888 17.4133 30.4 18.9932C31.0127 20.0527 32.1263 20.646 33.2704 20.646C33.8318 20.646 34.3993 20.5033 34.9181 20.2032C36.4985 19.2923 37.0417 17.2657 36.1294 15.6848C35.217 14.1068 33.1903 13.563 31.6116 14.4748Z" fill="black"/>
<path d="M27.1223 6.70041C26.9748 6.78489 26.8397 6.88395 26.697 6.97426L26.9595 7.43066C27.1025 7.34035 27.2387 7.2413 27.3859 7.15584C27.5331 7.07136 27.6868 7.00339 27.8358 6.92474L26.8707 5.25254C26.7316 5.01074 26.4224 4.92818 26.18 5.06802C25.9384 5.20688 25.8541 5.51764 25.9953 5.75847L26.191 6.09835C26.3336 6.00804 26.4694 5.90898 26.617 5.82449L27.1223 6.70041Z" fill="black"/>
<path d="M27.1222 6.70027L26.617 5.82435C26.4694 5.90884 26.3336 6.0079 26.191 6.09821L26.697 6.97412C26.8397 6.88381 26.9747 6.78475 27.1222 6.70027Z" fill="black"/>
<path d="M26.9595 7.43055L27.2004 7.84715C27.2945 8.00932 27.4644 8.10059 27.6388 8.10059C27.725 8.10059 27.8119 8.07825 27.8919 8.03164C28.1335 7.89278 28.2166 7.58302 28.0766 7.34122L27.8358 6.92462C27.6867 7.00328 27.5331 7.07124 27.3859 7.15573C27.2387 7.24118 27.1025 7.34024 26.9595 7.43055Z" fill="black"/>
<path d="M29.7775 30.1685L25.1862 32.5078C25.1383 32.5321 25.0951 32.5641 25.0575 32.601L13.9524 43.7063C13.6549 44.0034 13.2612 44.1918 12.8424 44.2365L9.59085 44.5812C9.03364 44.6414 8.4874 44.4472 8.09062 44.051L6.55243 42.5138C6.15682 42.1166 5.96367 41.5709 6.02251 41.0144L6.36802 37.7623C6.4124 37.3438 6.60021 36.9495 6.89794 36.6514L21.0299 22.5193C20.8846 22.1794 20.748 21.8356 20.6323 21.486L20.3334 21.7851L20.6908 22.1435L19.9753 22.8591L19.6176 22.5008L6.18216 35.9367C5.72128 36.397 5.43035 37.0078 5.36169 37.6555L5.01619 40.9067C4.92471 41.7699 5.22399 42.6158 5.83742 43.2295L7.37591 44.7667C7.91534 45.3076 8.63763 45.6038 9.39128 45.6038C9.49334 45.6038 9.59502 45.5979 9.69747 45.5882L12.949 45.2425C13.5973 45.1736 14.208 44.8823 14.6685 44.4229L23.9207 35.1685L23.5638 34.8112L24.2788 34.0955L24.6362 34.4529L25.7165 33.373L28.3259 32.0436C28.2845 31.9349 28.2306 31.83 28.1442 31.7435L28.86 31.0279C29.0212 31.19 29.1364 31.3823 29.2271 31.5843L31.3711 30.4909C30.8533 30.4151 30.3363 30.32 29.8234 30.183C29.8078 30.1782 29.7939 30.1723 29.7775 30.1685Z" fill="black"/>
<path d="M21.5685 21.9813L20.8534 21.2656L20.6323 21.4861C20.748 21.8357 20.8846 22.1794 21.0299 22.5193L21.5685 21.9813Z" fill="black"/>
<path d="M31.0437 29.5228L29.7775 30.1686C29.7938 30.1724 29.8078 30.1783 29.8234 30.1831C30.3363 30.3201 30.8533 30.4152 31.3711 30.491L31.503 30.424L31.0437 29.5228Z" fill="black"/>
<path d="M7.64605 41.6951C7.6646 41.697 7.68315 41.697 7.70063 41.697C7.95593 41.697 8.17481 41.5048 8.20326 41.2455L8.53518 38.1147L20.8398 25.8102C21.0374 25.6121 21.0374 25.2926 20.8398 25.0945C20.6418 24.8973 20.322 24.8973 20.124 25.0945L7.73287 37.4864C7.62595 37.5942 7.55691 37.736 7.54166 37.8865L7.19654 41.1377C7.16732 41.4164 7.36871 41.665 7.64605 41.6951Z" fill="black"/>
<path d="M11.1635 12.6151C10.9663 12.418 10.6457 12.418 10.4477 12.6151L10.227 12.8365L9.46984 12.0781L12.3114 9.23675L13.0689 9.99419L12.8481 10.2146L13.5635 10.9303L13.2062 11.2887L19.9927 18.0755C19.9666 17.5977 19.9621 17.119 19.989 16.6393L13.9217 10.572L14.142 10.3516C14.3404 10.1544 14.3404 9.83397 14.142 9.63684L12.6687 8.16372C12.4707 7.96562 12.1509 7.96562 11.9541 8.16372L8.39554 11.7208C8.30153 11.815 8.24725 11.9441 8.24725 12.0781C8.24725 12.2131 8.30153 12.3413 8.39554 12.4365L9.86924 13.9086C10.0665 14.1067 10.387 14.1067 10.585 13.9086L10.8059 13.6882L19.6176 22.5007L20.3334 21.7851L11.1635 12.6151Z" fill="black"/>
<path d="M19.9928 18.0757L20.124 18.2058L20.8398 17.4911L19.989 16.6395C19.9621 17.1192 19.9666 17.5979 19.9928 18.0757Z" fill="black"/>
<path d="M20.6908 22.1432L20.3334 21.7849L19.6176 22.5006L19.9753 22.8589L20.6908 22.1432Z" fill="black"/>
<path d="M12.1278 12.3667L13.2062 11.2888L12.8481 10.9305C12.6513 10.7333 12.6513 10.4129 12.8481 10.2148L11.4124 11.651L12.1278 12.3667Z" fill="black"/>
<path d="M12.8481 10.9305L13.2062 11.2888L13.5635 10.9305L12.8481 10.2148C12.6513 10.4129 12.6513 10.7334 12.8481 10.9305Z" fill="black"/>
<path d="M28.3748 32.501C28.3194 32.7797 28.1377 33.0021 27.8752 33.1108C26.5631 33.6576 25.5673 34.1994 24.9062 34.7228L24.6361 34.4529L23.9207 35.1686L24.5269 35.7735C24.6259 35.8726 24.7548 35.9221 24.8842 35.9221C25.0139 35.9221 25.1429 35.8726 25.2419 35.7735C25.7684 35.2482 26.813 34.65 28.2652 34.045C28.8349 33.8071 29.2476 33.3031 29.3667 32.6972C29.443 32.3146 29.3826 31.929 29.2271 31.5843L28.3259 32.0436C28.3812 32.1874 28.4063 32.3418 28.3748 32.501Z" fill="black"/>
<path d="M24.2788 34.0954L23.5638 34.8111L23.9207 35.1685L24.6361 34.4528L24.2788 34.0954Z" fill="black"/>
<path d="M28.1442 31.7434C28.2306 31.8298 28.2845 31.9347 28.3259 32.0435L29.2271 31.5841C29.1364 31.3822 29.0212 31.1899 28.86 31.0277L28.1442 31.7434Z" fill="black"/>
<path d="M17.5692 35.5328C17.3712 35.3347 17.0511 35.3347 16.8538 35.5328C16.6562 35.7299 16.6562 36.0513 16.8538 36.2475L18.0328 37.4264C18.131 37.5254 18.2607 37.574 18.3901 37.574C18.5198 37.574 18.6496 37.5254 18.7482 37.4264C18.9454 37.2283 18.9454 36.9088 18.7482 36.7107L17.5692 35.5328Z" fill="black"/>
<path d="M16.1904 36.9107C15.9928 36.7136 15.6726 36.7136 15.475 36.9107C15.2777 37.1088 15.2777 37.4293 15.475 37.6264L16.6543 38.8043C16.753 38.9044 16.8819 38.9539 17.0117 38.9539C17.1406 38.9539 17.2703 38.9044 17.3693 38.8043C17.5666 38.6082 17.5666 38.2877 17.3693 38.0906L16.1904 36.9107Z" fill="black"/>
<path d="M14.8116 38.2896C14.6143 38.0925 14.2942 38.0925 14.0965 38.2896C13.8977 38.4877 13.8977 38.8082 14.0965 39.0053L15.2747 40.1842C15.3741 40.2832 15.5035 40.3328 15.6328 40.3328C15.7626 40.3328 15.8919 40.2832 15.9905 40.1842C16.1881 39.9861 16.1881 39.6656 15.9905 39.4685L14.8116 38.2896Z" fill="black"/>
</svg>
