<svg width="50" height="50" viewBox="0 0 50 50" fill="none" xmlns="http://www.w3.org/2000/svg">
<path d="M27.58 24.8928C27.58 21.1745 24.555 18.1496 20.8367 18.1496C17.1177 18.1496 14.0924 21.1745 14.0924 24.8928C14.0924 28.6114 17.1177 31.6375 20.8367 31.6375C24.555 31.6375 27.58 28.6114 27.58 24.8928Z" fill="#D04E4E"/>
<path d="M27.0628 38.4452C27.0379 38.4452 27.0172 38.4675 27.0172 38.4925V40.9921C27.0172 40.997 27.0172 41.008 27.0296 41.0177C27.0438 41.0303 27.0587 41.0252 27.0628 41.0245C28.0806 40.8095 29.1051 40.7015 30.1295 40.7015C31.154 40.7015 32.1784 40.8095 33.1962 41.0245C33.2012 41.0252 33.2161 41.0303 33.2294 41.0177C33.2419 41.008 33.2419 40.997 33.2419 40.9921V38.4925C33.2419 38.4675 33.2211 38.4452 33.1954 38.4452H27.0628Z" fill="#E0E0E0"/>
<path d="M10.5265 24.8932C10.5265 19.2081 15.1515 14.5834 20.8367 14.5834C26.5207 14.5834 31.1465 19.2081 31.1465 24.8932C31.1465 30.5777 26.5207 35.2033 20.8367 35.2033C15.1515 35.2033 10.5265 30.5777 10.5265 24.8932ZM8.7377 24.8932C8.7377 25.1549 8.52501 25.3673 8.26268 25.3673C8.00001 25.3673 7.78757 25.1549 7.78757 24.8932C7.78757 17.6988 13.6413 11.8445 20.8367 11.8445C21.0987 11.8445 21.3114 12.0572 21.3114 12.3202C21.3114 12.5819 21.0987 12.7943 20.8367 12.7943C14.165 12.7943 8.7377 18.2219 8.7377 24.8932ZM32.9023 35.0963H33.852V36.4236H32.9023V35.0963ZM32.9023 24.8932H33.852V33.8458H32.9023V24.8932ZM26.0675 38.4926C26.0675 37.9429 26.5141 37.4964 27.0628 37.4964H33.1954C33.7449 37.4964 34.1924 37.9429 34.1924 38.4926V39.78H35.7233V24.8932C35.7233 16.6845 29.0453 10.0057 20.8367 10.0057C12.6279 10.0057 5.9498 16.6845 5.9498 24.8932C5.9498 33.1013 12.6279 39.78 20.8367 39.78H26.0675V38.4926Z" fill="#D04E4E"/>
<path d="M13.1422 24.8932C13.1422 20.6519 16.5943 17.2001 20.8367 17.2001C25.078 17.2001 28.5298 20.6519 28.5298 24.8932C28.5298 29.1356 25.078 32.5873 20.8367 32.5873C16.5943 32.5873 13.1422 29.1356 13.1422 24.8932ZM30.1959 24.8932C30.1959 19.7322 25.9969 15.534 20.8367 15.534C15.6749 15.534 11.4764 19.7322 11.4764 24.8932C11.4764 30.0546 15.6749 34.2529 20.8367 34.2529C25.9969 34.2529 30.1959 30.0546 30.1959 24.8932Z" fill="#E0E0E0"/>
<path d="M10.5217 39.78H15.4862C12.5565 38.7225 10.0316 36.8322 8.19129 34.3881V37.4496C8.19129 38.7348 9.23648 39.78 10.5217 39.78Z" fill="#E0E0E0"/>
<path d="M35.5605 19.0994C35.8478 18.563 35.8619 17.9005 35.5498 17.3395C35.1936 16.6971 34.8101 16.0602 34.4083 15.445C34.3327 15.3295 34.312 15.1875 34.3485 15.0565C34.3751 14.9627 34.4298 14.8788 34.5071 14.8166C34.9778 14.4345 35.2567 13.8926 35.2924 13.2898C35.3281 12.6889 35.1056 12.0961 34.6847 11.6644C34.4871 11.4611 34.2837 11.2574 34.0803 11.0593C33.642 10.6315 33.0642 10.4149 32.4549 10.4474C31.8472 10.4814 31.2984 10.7561 30.9107 11.226C30.7563 11.4128 30.4865 11.4543 30.2848 11.3207C29.6696 10.9195 29.032 10.5352 28.3911 10.1792C27.8291 9.86686 27.1666 9.88114 26.6295 10.1701C30.7048 11.7789 33.9508 15.025 35.5605 19.0994Z" fill="#E0E0E0"/>
<path d="M43.0164 37.6648C43.2787 37.6648 43.4921 37.8775 43.4921 38.1399V39.688H44.3812V36.775H40.9086L40.2594 37.2192L40.9086 37.6648H43.0164Z" fill="#E0E0E0"/>
<path d="M35.3646 11.0008C35.1612 10.7933 34.9529 10.5834 34.7437 10.3791C34.1227 9.77398 33.2692 9.45262 32.4042 9.49903C31.6828 9.53821 30.9987 9.82944 30.4707 10.3127C29.9419 9.97472 29.3981 9.65269 28.8519 9.34884C27.7701 8.74862 26.4443 8.94222 25.5718 9.78145C25.9321 9.89494 26.2816 10.0322 26.6295 10.17C27.1666 9.88099 27.8291 9.86671 28.3911 10.179C29.032 10.5351 29.6696 10.9194 30.2848 11.3205C30.4865 11.4542 30.7563 11.4127 30.9107 11.2259C31.2984 10.7559 31.8472 10.4813 32.4549 10.4473C33.0642 10.4148 33.642 10.6314 34.0803 11.0592C34.2837 11.2573 34.4871 11.461 34.6847 11.6643C35.1056 12.0959 35.3281 12.6887 35.2924 13.2896C35.2567 13.8925 34.9778 14.4344 34.5071 14.8164C34.4298 14.8787 34.375 14.9626 34.3485 15.0563C34.312 15.1873 34.3327 15.3294 34.4083 15.4449C34.8101 16.06 35.1936 16.6969 35.5498 17.3393C35.8619 17.9004 35.8478 18.5628 35.5605 19.0992C35.6975 19.4479 35.8345 19.7975 35.9482 20.1587C36.7876 19.2854 36.9818 17.9594 36.3808 16.8779C36.0769 16.3324 35.7548 15.7892 35.4194 15.2613C35.9034 14.7408 36.1981 14.0627 36.2405 13.3454C36.2911 12.4785 35.9723 11.6244 35.3646 11.0008Z" fill="black"/>
<path d="M20.8367 12.7942C21.0987 12.7942 21.3114 12.5818 21.3114 12.3201C21.3114 12.0571 21.0987 11.8444 20.8367 11.8444C13.6413 11.8444 7.78757 17.6987 7.78757 24.8931C7.78757 25.1548 8.00001 25.3672 8.26268 25.3672C8.52501 25.3672 8.7377 25.1548 8.7377 24.8931C8.7377 18.2218 14.165 12.7942 20.8367 12.7942Z" fill="black"/>
<path d="M11.4764 24.893C11.4764 19.7319 15.6749 15.5337 20.8367 15.5337C25.9969 15.5337 30.1959 19.7319 30.1959 24.893C30.1959 30.0544 25.9969 34.2526 20.8367 34.2526C15.6749 34.2526 11.4764 30.0544 11.4764 24.893ZM31.1465 24.893C31.1465 19.2079 26.5207 14.5832 20.8367 14.5832C15.1515 14.5832 10.5265 19.2079 10.5265 24.893C10.5265 30.5774 15.1515 35.2031 20.8367 35.2031C26.5207 35.2031 31.1465 30.5774 31.1465 24.893Z" fill="black"/>
<path d="M14.0924 24.8928C14.0924 21.1745 17.1177 18.1496 20.8367 18.1496C24.5549 18.1496 27.58 21.1745 27.58 24.8928C27.58 28.6114 24.5549 31.6374 20.8367 31.6374C17.1177 31.6374 14.0924 28.6114 14.0924 24.8928ZM28.5298 24.8928C28.5298 20.6515 25.078 17.1997 20.8367 17.1997C16.5943 17.1997 13.1422 20.6515 13.1422 24.8928C13.1422 29.1352 16.5943 32.5869 20.8367 32.5869C25.078 32.5869 28.5298 29.1352 28.5298 24.8928Z" fill="black"/>
<path d="M35.1089 19.6546C35.2999 19.4977 35.4493 19.3083 35.5606 19.0991C33.9508 15.0247 30.7048 11.7787 26.6295 10.1698C26.4219 10.2801 26.231 10.4286 26.0749 10.6205L25.3394 10.0187C25.4108 9.93241 25.4921 9.85852 25.5718 9.78132C24.0759 9.31144 22.4857 9.05657 20.8367 9.05657C12.1042 9.05657 5 16.1611 5 24.8928C5 27.8474 5.82761 30.6045 7.24148 32.9738V32.8875H8.19129V34.3878C10.0316 36.8319 12.5565 38.7221 15.4862 39.7797H20.8367C12.6279 39.7797 5.94981 33.101 5.94981 24.8928C5.94981 16.6842 12.6279 10.0054 20.8367 10.0054C29.0453 10.0054 35.7233 16.6842 35.7233 24.8928V39.7797H34.1924V40.7295H36.1981C36.4596 40.7295 36.673 40.5177 36.673 40.2547V37.6935H36.1981V36.7436H36.673V24.8928C36.673 23.2442 36.4181 21.6529 35.9483 20.1586C35.8719 20.2373 35.7972 20.3188 35.7108 20.3891L35.1089 19.6546Z" fill="black"/>
<path d="M20.8367 39.7797V40.7295H26.0675V39.7797H20.8367Z" fill="black"/>
<path d="M35.1089 19.6547L35.7108 20.3892C35.7972 20.3188 35.8719 20.2374 35.9483 20.1586C35.8345 19.7974 35.6975 19.4478 35.5606 19.0991C35.4493 19.3083 35.2999 19.4977 35.1089 19.6547Z" fill="black"/>
<path d="M33.8521 24.8931H32.9023V33.8457H33.8521V24.8931Z" fill="black"/>
<path d="M39.2723 37.6938L39.1511 37.6108C39.0224 37.5229 38.9452 37.3761 38.9452 37.2191C38.9452 37.0627 39.0224 36.9168 39.1511 36.828L39.2723 36.744H36.673V37.6938H39.2723Z" fill="black"/>
<path d="M36.1981 37.6938H36.673V36.744H36.1981V37.6938Z" fill="black"/>
<path d="M40.9086 36.7748H44.3812V39.6878H43.4921V38.1397C43.4921 37.8773 43.2787 37.6646 43.0164 37.6646H40.9086L40.2594 37.219L40.9086 36.7748ZM39.4201 37.6938H39.2723L40.4927 38.5314C40.5715 38.5852 40.6653 38.6145 40.7608 38.6145H42.5415V40.1636C42.5415 40.4249 42.7549 40.6377 43.0164 40.6377H44.8561C45.1184 40.6377 45.3309 40.4249 45.3309 40.1636V36.299C45.3309 36.0377 45.1184 35.8249 44.8561 35.8249H40.7608C40.6653 35.8249 40.5715 35.8541 40.4927 35.9089L39.2723 36.7439H39.4201V37.6938Z" fill="black"/>
<path d="M38.9452 37.2191C38.9452 37.3761 39.0224 37.5229 39.1511 37.6108L39.2723 37.6938H39.4201V36.744H39.2723L39.1511 36.828C39.0224 36.9168 38.9452 37.0627 38.9452 37.2191Z" fill="black"/>
<path d="M10.5217 39.7797C9.23647 39.7797 8.19127 38.7345 8.19127 37.4493V34.3878C7.85049 33.9337 7.53328 33.4622 7.24147 32.9738V37.4493C7.24147 39.2585 8.71279 40.7295 10.5217 40.7295H20.8366C18.9564 40.7295 17.1601 40.3831 15.4861 39.7797H10.5217Z" fill="black"/>
<path d="M15.4861 39.7797C17.1601 40.3831 18.9564 40.7295 20.8367 40.7295V39.7797H15.4861Z" fill="black"/>
<path d="M8.19127 32.8875H7.24147V32.9737C7.53328 33.4621 7.85049 33.9337 8.19127 34.3877V32.8875Z" fill="black"/>
<path d="M33.2419 40.992C33.2419 40.9969 33.2419 41.0079 33.2294 41.0176C33.2161 41.0302 33.2012 41.0251 33.1962 41.0244C32.1784 40.8094 31.154 40.7014 30.1295 40.7014C29.1051 40.7014 28.0806 40.8094 27.0628 41.0244C27.0587 41.0251 27.0438 41.0302 27.0296 41.0176C27.0172 41.0079 27.0172 40.9969 27.0172 40.992V38.4924C27.0172 38.4674 27.0379 38.4451 27.0628 38.4451H33.1954C33.2211 38.4451 33.2419 38.4674 33.2419 38.4924V40.992ZM33.7167 39.7798H34.1924V38.4924C34.1924 37.9427 33.745 37.4962 33.1954 37.4962H27.0628C26.5141 37.4962 26.0675 37.9427 26.0675 38.4924V39.7798H26.5423V40.7296H26.0675V40.992C26.0675 41.289 26.2003 41.5683 26.4311 41.7566C26.6644 41.9434 26.9657 42.0164 27.2604 41.9541C29.164 41.5498 31.0942 41.5498 32.9995 41.9541C33.0684 41.9674 33.1373 41.9766 33.2062 41.9766C33.4312 41.9766 33.6503 41.8984 33.828 41.7566C34.0596 41.5683 34.1924 41.289 34.1924 40.992V40.7296H33.7167V39.7798Z" fill="black"/>
<path d="M33.7167 39.7797V40.7295H34.1924V39.7797H33.7167Z" fill="black"/>
<path d="M26.5423 39.7797H26.0675V40.7295H26.5423V39.7797Z" fill="black"/>
<path d="M33.8521 35.0963H32.9023V36.4236H33.8521V35.0963Z" fill="black"/>
</svg>
