<svg width="50" height="50" viewBox="0 0 50 50" fill="none" xmlns="http://www.w3.org/2000/svg">
<path d="M37.7406 13.6489C37.6717 13.6862 37.598 13.7036 37.5243 13.7036C37.3634 13.7036 37.2073 13.618 37.1257 13.4682C36.8 12.8707 36.3903 12.3231 35.9084 11.8413C34.7625 10.6945 33.2536 9.96624 31.6591 9.79031C31.4119 9.76258 31.2312 9.53832 31.2597 9.29027C31.2859 9.04143 31.5117 8.86233 31.7598 8.88927C33.5579 9.08739 35.2586 9.90839 36.5488 11.1993C37.0932 11.743 37.5544 12.3603 37.9213 13.034C38.0418 13.2535 37.9609 13.5293 37.7406 13.6489ZM39.7979 19.4507L39.0561 20.1924L40.8472 21.9827L44.2073 18.6225L42.4163 16.8307L40.6435 18.6035L40.0024 17.9632L41.6365 16.3291C40.9042 15.9479 39.7369 15.1721 39.2923 13.8954C38.8612 12.6559 38.1345 11.5029 37.1915 10.559C35.7539 9.12227 33.8599 8.20931 31.8588 7.98741C29.8301 7.76394 26.825 7.90184 23.8032 9.74198L24.2256 10.1636C26.0246 9.88146 27.5834 9.8553 28.8585 10.0867C30.094 10.311 31.0568 11.1613 31.4301 12.3619C31.7566 13.4033 31.5537 14.5167 30.9063 15.3678L32.8954 17.3569C33.485 16.9131 34.2133 16.6738 34.9582 16.6913C35.8553 16.7119 36.6803 17.0867 37.2826 17.7469C37.8294 18.3452 38.2542 18.9982 38.5196 19.4467L39.156 18.8096L39.7979 19.4507Z" fill="#E0E0E0"/>
<path d="M29.8451 16.4735L31.7923 18.4182L32.2329 17.976L30.2881 16.0305L29.8451 16.4735Z" fill="white"/>
<path d="M19.0745 27.1393L6.0952 40.1194L8.70089 42.7259C8.91486 42.9399 9.16212 42.8638 9.23423 42.836C9.30397 42.8075 9.53537 42.6926 9.54409 42.3915L9.57578 41.2756C9.58608 40.9166 9.73191 40.5798 9.9863 40.3262L21.1239 29.1887L21.9266 27.7416L20.5216 26.3365L19.0745 27.1393Z" fill="#9228B7"/>
<path d="M29.5543 17.4609L21.2419 25.7748L22.4893 27.0222L30.8024 18.7091L29.5543 17.4609Z" fill="#E0E0E0"/>
<path d="M41.6365 16.3291L40.0023 17.9632L40.6435 18.6035L42.4162 16.8307L44.2073 18.6225L40.8471 21.9826L39.0561 20.1924L39.7979 19.4507L39.156 18.8095L38.5196 19.4467C38.7019 19.7558 38.8105 19.9705 38.8208 19.9903L38.0132 20.3905C38.0338 20.4341 38.0576 20.4769 38.0941 20.5126L40.3035 22.722C40.4533 22.871 40.6498 22.9463 40.8471 22.9463C41.0437 22.9463 41.2394 22.871 41.3908 22.722L44.9459 19.1654C45.2454 18.8666 45.2454 18.3784 44.9459 18.0781L42.7364 15.8694C42.6881 15.8203 42.6295 15.7878 42.5684 15.7656L42.2633 16.6167C42.2332 16.6056 41.978 16.5066 41.6365 16.3291Z" fill="black"/>
<path d="M30.6075 15.7105L30.2881 16.0306L32.2328 17.9762L32.5522 17.6552L33.1942 18.2963C33.6593 17.8304 34.2783 17.5847 34.9368 17.5982C35.5851 17.6124 36.1802 17.8827 36.6121 18.3582C37.4466 19.2735 38.0029 20.3829 38.0093 20.394L38.0132 20.3909C37.9292 20.2221 37.953 20.0129 38.0941 19.8718L38.5196 19.447C38.2541 18.9985 37.8294 18.3455 37.2826 17.7472C36.6803 17.087 35.8553 16.7122 34.9582 16.6916C34.2133 16.6741 33.485 16.9135 32.8954 17.3572L30.9062 15.3681C31.5537 14.517 31.7566 13.4036 31.4301 12.3622C31.0568 11.1616 30.0939 10.3113 28.8585 10.087C27.5834 9.8556 26.0246 9.88177 24.2256 10.1639L23.8032 9.74229C26.825 7.90215 29.8301 7.76424 31.8588 7.98772C33.8598 8.20962 35.7539 9.12257 37.1914 10.5593C38.1345 11.5032 38.8612 12.6562 39.2923 13.8957C39.7369 15.1724 40.9042 15.9482 41.6365 16.3294L42.0953 15.8698C42.2245 15.7422 42.4091 15.7097 42.5684 15.766L42.5692 15.7636C42.551 15.7564 40.6593 15.0638 40.149 13.5969C39.6735 12.2307 38.8731 10.958 37.8325 9.91822C36.25 8.33563 34.1641 7.32997 31.9579 7.08668C29.6739 6.83467 26.2369 7.0114 22.8324 9.28741C22.7183 9.36269 22.6454 9.48394 22.6327 9.61945C22.6185 9.75417 22.6676 9.8889 22.7635 9.98479L23.7477 10.9698C23.8516 11.0729 23.999 11.1204 24.144 11.0966C25.9382 10.7955 27.4692 10.7567 28.696 10.9793C29.5939 11.1434 30.2929 11.7607 30.5663 12.6325C30.8389 13.5098 30.6162 14.4203 29.9679 15.0694L30.6075 15.7105Z" fill="black"/>
<path d="M38.5196 19.4465L38.0941 19.8713C37.953 20.0124 37.9292 20.2216 38.0132 20.3904L38.8208 19.9902C38.8105 19.9704 38.7019 19.7556 38.5196 19.4465Z" fill="black"/>
<path d="M42.0953 15.8694L41.6365 16.329C41.978 16.5065 42.2332 16.6056 42.2633 16.6167L42.5685 15.7656C42.4092 15.7093 42.2245 15.7418 42.0953 15.8694Z" fill="black"/>
<path d="M36.5487 11.1994C35.2586 9.90841 33.5579 9.0874 31.7598 8.88928C31.5117 8.86234 31.2859 9.04144 31.2597 9.29028C31.2312 9.53833 31.4119 9.76259 31.6591 9.79032C33.2536 9.96626 34.7625 10.6946 35.9084 11.8413C36.3902 12.3231 36.7999 12.8707 37.1257 13.4682C37.2073 13.618 37.3634 13.7036 37.5243 13.7036C37.598 13.7036 37.6717 13.6862 37.7406 13.6489C37.9609 13.5293 38.0418 13.2535 37.9213 13.034C37.5544 12.3604 37.0932 11.743 36.5487 11.1994Z" fill="black"/>
<path d="M30.8024 18.709L22.4893 27.0221L22.8103 27.3423C22.9521 27.4857 22.983 27.706 22.8848 27.8828L22.8546 27.9382L31.522 19.2709C31.3873 19.2281 31.2589 19.1655 31.1527 19.0593L30.8024 18.709Z" fill="black"/>
<path d="M20.921 25.4531L21.2419 25.7749L29.5543 17.461L29.204 17.1107C29.0978 17.0045 29.0344 16.8761 28.9916 16.7406L20.325 25.4088L20.3805 25.3771C20.5572 25.2796 20.7783 25.3105 20.921 25.4531Z" fill="black"/>
<path d="M20.5215 26.3366L21.9266 27.7417L20.5215 26.3366Z" fill="black"/>
<path d="M29.876 17.1407L29.5543 17.4608L30.8024 18.709L31.1226 18.388L31.7629 19.03L31.522 19.2709C31.6108 19.2986 31.6995 19.324 31.7914 19.324C32.0229 19.324 32.2542 19.2352 32.431 19.0593L33.1942 18.2961C33.0166 18.4736 32.7298 18.4736 32.5522 18.2961L32.2328 17.976L31.7923 18.4182L29.8451 16.4734L30.2881 16.0304L29.9679 15.7103C29.7896 15.5327 29.7896 15.2459 29.9679 15.0691L29.204 15.8315C28.9567 16.078 28.8949 16.4298 28.9916 16.7405L29.2341 16.4996L29.876 17.1407Z" fill="black"/>
<path d="M29.9679 15.7101L30.2881 16.0303L30.6075 15.7101L29.9679 15.069C29.7896 15.2457 29.7896 15.5326 29.9679 15.7101Z" fill="black"/>
<path d="M32.2328 17.9757L32.5522 18.2958C32.7297 18.4733 33.0166 18.4733 33.1941 18.2958L32.5522 17.6547L32.2328 17.9757Z" fill="black"/>
<path d="M31.1226 18.3879L30.8024 18.7089L31.1527 19.0592C31.2589 19.1654 31.3873 19.228 31.522 19.2708L31.7629 19.0298L31.1226 18.3879Z" fill="black"/>
<path d="M29.5543 17.4609L29.876 17.1408L29.2341 16.4997L28.9916 16.7406C29.0344 16.8761 29.0978 17.0045 29.204 17.1107L29.5543 17.4609Z" fill="black"/>
<path d="M8.06058 43.3679C8.33161 43.6381 8.68187 43.7808 9.04166 43.7808C9.2168 43.7808 9.39591 43.7467 9.56867 43.6785C10.0965 43.4685 10.4333 42.9859 10.4499 42.4177L10.4832 41.3019C10.4864 41.1751 10.5379 41.057 10.6274 40.9674L21.8102 29.7847C21.8395 29.7546 21.8648 29.7213 21.8854 29.6849L22.8546 27.9382L22.8103 27.9834C22.7247 28.0682 22.6098 28.1158 22.4893 28.1158C22.3689 28.1158 22.2532 28.0682 22.1684 27.9834L21.9266 27.7417L21.1239 29.1888L9.98631 40.3263C9.73193 40.5799 9.5861 40.9167 9.57579 41.2757L9.5441 42.3915C9.53539 42.6927 9.30399 42.8076 9.23425 42.8361C9.16213 42.8639 8.91488 42.9399 8.70091 42.726L6.09522 40.1195L19.0745 27.1394L20.5216 26.3366L20.2791 26.0941C20.1023 25.9174 20.1023 25.6305 20.2791 25.453L20.325 25.4086L18.5792 26.3771C18.542 26.3984 18.5087 26.4238 18.4778 26.4539L5.13236 39.7985C5.04835 39.8841 5 39.9998 5 40.1195C5 40.24 5.04835 40.3541 5.13236 40.4397L8.06058 43.3679Z" fill="black"/>
<path d="M21.2419 25.7748L22.4893 27.0222L21.2419 25.7748Z" fill="black"/>
<path d="M20.2791 26.0941L20.5216 26.3366L21.9266 27.7417L22.1683 27.9834C22.2531 28.0682 22.3688 28.1157 22.4893 28.1157C22.6098 28.1157 22.7247 28.0682 22.8102 27.9834L22.8546 27.9382L22.8848 27.8827C22.983 27.706 22.9521 27.4857 22.8102 27.3423L22.4893 27.0221L21.2419 25.7747L20.921 25.453C20.7783 25.3103 20.5572 25.2794 20.3805 25.3769L20.325 25.4086L20.2791 25.453C20.1023 25.6305 20.1023 25.9174 20.2791 26.0941Z" fill="black"/>
</svg>
